<?xml version="1.0" standalone="no"?><!DOCTYPE svg PUBLIC "-//W3C//DTD SVG 1.1//EN" "http://www.w3.org/Graphics/SVG/1.1/DTD/svg11.dtd"><svg t="1745596580709" class="icon" viewBox="0 0 1026 1024" version="1.1" xmlns="http://www.w3.org/2000/svg" p-id="8084" xmlns:xlink="http://www.w3.org/1999/xlink" width="200.390625" height="200"><path d="M915.2 0H108.8C49.066667 0 0 49.066667 0 108.8V917.333333c0 57.6 49.066667 106.666667 108.8 106.666667H917.333333c59.733333 0 108.8-49.066667 108.8-108.8V108.8C1024 49.066667 974.933333 0 915.2 0zM258.133333 736c-68.266667 0-123.733333-53.333333-123.733333-121.6v-206.933333c0-68.266667 53.333333-121.6 123.733333-121.6v-2.133334h198.4l-17.066666 70.4-172.8 38.4c-17.066667 6.4-27.733333 17.066667-27.733334 32V597.333333c0 17.066667 12.8 29.866667 27.733334 32l170.666666 34.133334 17.066667 70.4c0 2.133333-196.266667 2.133333-196.266667 2.133333z m324.266667-241.066667v34.133334h-136.533333v-34.133334h136.533333z m307.2 121.6c0 68.266667-53.333333 121.6-123.733333 121.6h-198.4l17.066666-70.4 170.666667-34.133333c17.066667-6.4 27.733333-17.066667 27.733333-32V426.666667c0-17.066667-12.8-29.866667-27.733333-32l-170.666667-34.133334-17.066666-70.4h196.266666c68.266667 0 123.733333 53.333333 123.733334 121.6V618.666667l2.133333-2.133334z" fill="#FF6A00" p-id="8085"></path></svg>