<?xml version="1.0" standalone="no"?><!DOCTYPE svg PUBLIC "-//W3C//DTD SVG 1.1//EN" "http://www.w3.org/Graphics/SVG/1.1/DTD/svg11.dtd"><svg t="1745596539119" class="icon" viewBox="0 0 1024 1024" version="1.1" xmlns="http://www.w3.org/2000/svg" p-id="7091" xmlns:xlink="http://www.w3.org/1999/xlink" width="200" height="200"><path d="M0 0m0 0l1024 0q0 0 0 0l0 1024q0 0 0 0l-1024 0q0 0 0 0l0-1024q0 0 0 0Z" fill="#8662FA" p-id="7092"></path><path d="M622.08 421.546667c0.085333 7.552 0.170667 15.104 0 22.613333l0.64-1.28h210.56c21.76 0 51.84 19.2 65.28 36.48 50.56 64.64 4.48 155.52-75.52 157.44h-201.6c29.44 140.16-62.08 279.04-200.96 309.76-232.32 51.2-409.6-208-275.84-405.76 63.36-93.44 181.12-136.32 290.56-105.6-3.2-80 6.4-160.64 49.28-229.76 73.6-119.68 208-144.64 339.2-136.32 77.44 5.12 120.96 90.24 74.24 153.6-29.866667 40.661333-70.485333 39.808-112.469333 38.954667-20.138667-0.426667-40.618667-0.853333-60.330667 3.285333-46.72 10.24-83.84 42.24-97.28 88.96-6.229333 22.101333-5.973333 44.885333-5.76 67.584z m-191.36 307.413333c31.36-55.04-12.8-122.24-75.52-116.48-55.04 5.12-86.4 65.28-61.44 113.92 28.16 54.4 105.6 57.6 136.96 2.56z" fill="#FFFFFF" p-id="7093"></path></svg>