<?xml version="1.0" standalone="no"?><!DOCTYPE svg PUBLIC "-//W3C//DTD SVG 1.1//EN" "http://www.w3.org/Graphics/SVG/1.1/DTD/svg11.dtd"><svg t="1754553060209" class="icon" viewBox="0 0 1024 1024" version="1.1" xmlns="http://www.w3.org/2000/svg" p-id="2427" xmlns:xlink="http://www.w3.org/1999/xlink" width="200" height="200"><path d="M515.84 834.56c-1.28 2.56-2.56 5.546667-3.84 8.106667-5.546667-10.24-10.24-21.333333-15.36-32a253.909333 253.909333 0 0 1-47.36-128.426667c-10.666667-41.386667-18.346667-84.053333-21.333333-128h43.52c14.933333-32.853333 36.693333-61.866667 63.573333-85.333333h-107.093333c5.973333-101.12 34.986667-199.68 84.053333-288 43.093333 77.653333 69.12 162.56 79.786667 250.453333 25.6-12.8 53.76-21.333333 83.626666-24.32-10.666667-76.8-32.426667-151.893333-65.28-222.293333 63.573333 18.773333 119.893333 55.893333 162.56 106.666666 38.4 45.226667 63.146667 99.413333 74.24 157.44 38.826667 26.026667 69.973333 62.72 90.026667 105.813334 1.28-14.08 2.133333-28.16 2.133333-42.666667 0-235.52-191.146667-426.666667-426.666666-426.666667S85.333333 276.48 85.333333 512s191.146667 426.666667 426.666667 426.666667c51.2 0 99.84-9.386667 145.066667-26.026667a255.573333 255.573333 0 0 1-141.226667-78.08zM251.733333 732.586667c-42.666667-50.346667-69.973333-112.213333-78.08-177.92h168.96c5.12 98.56 29.866667 194.986667 71.68 284.586666a336.853333 336.853333 0 0 1-162.56-106.666666zM342.613333 469.333333H173.653333c8.106667-65.706667 35.413333-127.573333 78.08-177.92 42.666667-50.346667 99.413333-87.466667 162.56-106.666666C372.053333 273.92 347.733333 370.773333 342.613333 469.333333z" p-id="2428"></path><path d="M990.293333 908.373333l-132.693333-132.693333c24.746667-32.853333 38.826667-72.533333 38.826667-114.346667 0-51.2-20.053333-99.413333-56.32-135.68A190.762667 190.762667 0 0 0 704.426667 469.333333c-51.2 0-99.413333 20.053333-135.68 56.32-36.266667 36.266667-56.32 84.48-56.32 135.68 0 51.2 20.053333 99.413333 56.32 135.68 36.266667 36.266667 84.48 56.32 135.68 56.32 31.146667 0 61.013333-8.106667 87.893333-22.186666l137.813333 137.813333c8.533333 8.533333 19.2 12.373333 30.293334 12.373333 11.093333 0 21.76-4.266667 30.293333-12.373333a42.496 42.496 0 0 0 0-60.16l-0.426667-0.426667z m-361.813333-171.52c-20.053333-20.053333-31.146667-46.933333-31.146667-75.52 0-28.586667 11.093333-55.04 31.146667-75.52s46.933333-31.146667 75.52-31.146666c28.586667 0 55.04 11.093333 75.52 31.146666s31.146667 46.933333 31.146667 75.52c0 28.586667-11.093333 55.04-31.146667 75.52-40.533333 40.533333-110.506667 40.533333-151.04 0z" p-id="2429"></path></svg>