<?xml version="1.0" standalone="no"?><!DOCTYPE svg PUBLIC "-//W3C//DTD SVG 1.1//EN" "http://www.w3.org/Graphics/SVG/1.1/DTD/svg11.dtd"><svg t="1745426943949" class="icon" viewBox="0 0 1024 1024" version="1.1" xmlns="http://www.w3.org/2000/svg" p-id="13425" xmlns:xlink="http://www.w3.org/1999/xlink" width="200" height="200"><path d="M728 905.7H291.9c-84.4 0-153.1-68.7-153.1-153.1V454.2c0-84.4 68.7-153.1 153.1-153.1H728c84.4 0 153.1 68.7 153.1 153.1v298.5c0 84.4-68.7 153-153.1 153z m-436.1-502c-27.9 0-50.6 22.7-50.6 50.6v298.5c0 27.9 22.7 50.6 50.6 50.6H728c27.9 0 50.6-22.7 50.6-50.6V454.2c0-27.9-22.7-50.6-50.6-50.6H291.9v0.1z m680.9 364.7c-28.2 0-51.2-23-51.2-51.2V509.7c0-28.2 23-51.2 51.2-51.2 28.2 0 51.2 23 51.2 51.2v207.5c0 28.4-23 51.2-51.2 51.2z m-921.6 0C23 768.4 0 745.5 0 717.2V509.7c0-28.2 23-51.2 51.2-51.2s51.2 23 51.2 51.2v207.5c0 28.4-22.8 51.2-51.2 51.2z" fill="#7447ed" p-id="13426"></path><path d="M511.2 370.8c-24.6 0-44.6-20-44.6-44.6V224.3c0-24.6 20-44.6 44.6-44.6s44.6 20 44.6 44.6v101.9c0 24.6-20 44.6-44.6 44.6z" fill="#7447ed" p-id="13427"></path><path d="M509.9 243.8c-56.5 0-102.4-45.9-102.4-102.4S453.4 39 509.9 39s102.4 45.9 102.4 102.4-45.9 102.4-102.4 102.4z m0-102.4h0.2-0.2z m0 0h0.2-0.2z m0 0h0.2-0.2z m0 0h0.2-0.2z m0 0h0.2-0.2z m0 0h0.2-0.2z m0-0.1h0.2-0.2zM381.1 651.9c-32.3 0-58.4-26.2-58.4-58.4 0-32.3 26.2-58.4 58.4-58.4s58.4 26.2 58.4 58.4-26.1 58.4-58.4 58.4z m257.1 0c-32.3 0-58.4-26.2-58.4-58.4 0-32.3 26.2-58.4 58.4-58.4 32.3 0 58.4 26.2 58.4 58.4s-26.1 58.4-58.4 58.4z" fill="#7447ed" p-id="13428"></path></svg>