<svg width="182" height="181" viewBox="0 0 182 181" fill="none" xmlns="http://www.w3.org/2000/svg">
<path d="M91 180.5C141.058 180.5 181.638 140.206 181.638 90.5C181.638 40.7944 141.058 0.5 91 0.5C40.942 0.5 0.362061 40.7944 0.362061 90.5C0.362061 140.206 40.942 180.5 91 180.5Z" fill="url(#paint0_linear_5_284)"/>
<path d="M133.509 58.2658H152.071V46.8911" stroke="#5C6479" stroke-width="2" stroke-miterlimit="10" stroke-linecap="round" stroke-linejoin="round"/>
<path d="M141.465 76.3386H158.238" stroke="#5C6479" stroke-width="2" stroke-miterlimit="10" stroke-linecap="round" stroke-linejoin="round"/>
<path d="M140.047 92.642H149.359L159.472 103.006H169.339" stroke="#5C6479" stroke-width="2" stroke-miterlimit="10" stroke-linecap="round" stroke-linejoin="round"/>
<path d="M138.813 112.232H148.865V125.439" stroke="#5C6479" stroke-width="2" stroke-miterlimit="10" stroke-linecap="round" stroke-linejoin="round"/>
<path d="M151.825 46.8909C154.141 46.8909 156.018 44.9671 156.018 42.5938C156.018 40.2206 154.141 38.2968 151.825 38.2968C149.509 38.2968 147.632 40.2206 147.632 42.5938C147.632 44.9671 149.509 46.8909 151.825 46.8909Z" stroke="#5C6479" stroke-width="2" stroke-miterlimit="10" stroke-linecap="round" stroke-linejoin="round"/>
<path d="M148.742 134.096C151.058 134.096 152.935 132.172 152.935 129.799C152.935 127.426 151.058 125.502 148.742 125.502C146.426 125.502 144.549 127.426 144.549 129.799C144.549 132.172 146.426 134.096 148.742 134.096Z" stroke="#5C6479" stroke-width="2" stroke-miterlimit="10" stroke-linecap="round" stroke-linejoin="round"/>
<path d="M173.532 107.366C175.848 107.366 177.725 105.442 177.725 103.069C177.725 100.696 175.848 98.7719 173.532 98.7719C171.216 98.7719 169.339 100.696 169.339 103.069C169.339 105.442 171.216 107.366 173.532 107.366Z" stroke="#5C6479" stroke-width="2" stroke-miterlimit="10" stroke-linecap="round" stroke-linejoin="round"/>
<path d="M162.432 80.1931C164.748 80.1931 166.625 78.2692 166.625 75.896C166.625 73.5228 164.748 71.5989 162.432 71.5989C160.116 71.5989 158.238 73.5228 158.238 75.896C158.238 78.2692 160.116 80.1931 162.432 80.1931Z" stroke="#5C6479" stroke-width="2" stroke-miterlimit="10" stroke-linecap="round" stroke-linejoin="round"/>
<path d="M50.1986 58.2658H31.6985V46.8911" stroke="#5C6479" stroke-width="2" stroke-miterlimit="10" stroke-linecap="round" stroke-linejoin="round"/>
<path d="M42.3044 76.3386H25.4693" stroke="#5C6479" stroke-width="2" stroke-miterlimit="10" stroke-linecap="round" stroke-linejoin="round"/>
<path d="M43.6616 92.642H34.4116L24.2365 103.006H14.4314" stroke="#5C6479" stroke-width="2" stroke-miterlimit="10" stroke-linecap="round" stroke-linejoin="round"/>
<path d="M44.8952 112.232H34.9051V125.439" stroke="#5C6479" stroke-width="2" stroke-miterlimit="10" stroke-linecap="round" stroke-linejoin="round"/>
<path d="M31.9447 46.8909C34.2606 46.8909 36.138 44.9671 36.138 42.5938C36.138 40.2206 34.2606 38.2968 31.9447 38.2968C29.6287 38.2968 27.7513 40.2206 27.7513 42.5938C27.7513 44.9671 29.6287 46.8909 31.9447 46.8909Z" stroke="#5C6479" stroke-width="2" stroke-miterlimit="10" stroke-linecap="round" stroke-linejoin="round"/>
<path d="M35.0281 134.097C37.344 134.097 39.2214 132.173 39.2214 129.8C39.2214 127.426 37.344 125.503 35.0281 125.503C32.7121 125.503 30.8347 127.426 30.8347 129.8C30.8347 132.173 32.7121 134.097 35.0281 134.097Z" stroke="#5C6479" stroke-width="2" stroke-miterlimit="10" stroke-linecap="round" stroke-linejoin="round"/>
<path d="M10.1763 107.366C12.4922 107.366 14.3697 105.442 14.3697 103.069C14.3697 100.696 12.4922 98.7719 10.1763 98.7719C7.86037 98.7719 5.98294 100.696 5.98294 103.069C5.98294 105.442 7.86037 107.366 10.1763 107.366Z" stroke="#5C6479" stroke-width="2" stroke-miterlimit="10" stroke-linecap="round" stroke-linejoin="round"/>
<path d="M21.2766 80.1931C23.5925 80.1931 25.47 78.2692 25.47 75.896C25.47 73.5228 23.5925 71.5989 21.2766 71.5989C18.9607 71.5989 17.0833 73.5228 17.0833 75.896C17.0833 78.2692 18.9607 80.1931 21.2766 80.1931Z" stroke="#5C6479" stroke-width="2" stroke-miterlimit="10" stroke-linecap="round" stroke-linejoin="round"/>
<path d="M138.875 90.6197C140.54 93.7793 141.465 97.5076 141.465 101.426C141.465 108.061 138.752 114.064 134.558 117.982C134.62 118.614 134.682 119.246 134.682 119.941C134.682 128.409 128.577 135.297 121.115 135.297C121.053 135.297 120.992 135.297 120.93 135.297C119.882 141.553 115.072 146.292 109.213 146.292C107.733 146.292 106.315 145.976 105.02 145.408C102.985 147.493 100.272 148.82 97.3115 148.82C95.3998 148.82 93.6115 148.314 92.0081 147.303C90.4048 148.251 88.6164 148.82 86.7047 148.82C83.7447 148.82 81.0314 147.556 78.9964 145.408C77.7013 145.976 76.283 146.292 74.803 146.292C69.0063 146.292 64.1346 141.553 63.0862 135.297C63.0246 135.297 62.9629 135.297 62.9012 135.297C55.3779 135.297 49.3345 128.409 49.3345 119.941C49.3345 119.309 49.3961 118.614 49.4578 117.982C45.2645 114.064 42.5511 108.124 42.5511 101.426C42.5511 97.4445 43.4761 93.7793 45.1411 90.6197C43.4761 87.5232 42.5511 83.9213 42.5511 80.0665C42.5511 72.2938 46.3745 65.5322 51.9862 62.1198C51.6162 60.856 51.4312 59.5921 51.4312 58.2019C51.4312 51.2507 56.3029 45.5634 62.4079 45.2474C64.1963 40.6976 68.2046 37.4747 72.8913 37.4747C74.618 37.4747 76.2213 37.9171 77.6397 38.6754C79.7364 35.6422 83.0047 33.62 86.7047 33.62C88.6164 33.62 90.4048 34.1887 92.0081 35.1366C93.6115 34.1887 95.3998 33.62 97.3115 33.62C101.012 33.62 104.28 35.579 106.377 38.6754C107.857 37.9171 109.46 37.4747 111.125 37.4747C115.812 37.4747 119.82 40.6344 121.608 45.2474C127.713 45.5634 132.585 51.2507 132.585 58.2019C132.585 59.5289 132.4 60.856 132.03 62.1198C137.642 65.5954 141.465 72.357 141.465 80.0665C141.465 83.9213 140.478 87.5232 138.875 90.6197Z" fill="#5C6479"/>
<path d="M45.0796 90.62C43.4146 87.5235 42.4896 83.9215 42.4896 80.0668C42.4896 72.2941 46.313 65.5957 51.9247 62.1201" stroke="#8E96AB" stroke-width="3" stroke-miterlimit="10" stroke-linecap="round" stroke-linejoin="round"/>
<path d="M57.2281 122.279C48.7797 120.131 42.4896 111.6 42.4896 101.426C42.4896 97.4447 43.4146 93.7795 45.0796 90.6199" stroke="#8E96AB" stroke-width="3" stroke-miterlimit="10" stroke-linecap="round" stroke-linejoin="round"/>
<path d="M62.8398 135.297C55.3164 135.297 49.273 128.409 49.273 119.941C49.273 117.856 49.643 115.897 50.2597 114.064" stroke="#8E96AB" stroke-width="3" stroke-miterlimit="10" stroke-linecap="round" stroke-linejoin="round"/>
<path d="M83.6832 141.68C81.5248 144.46 78.3181 146.229 74.7415 146.229C69.0681 146.229 64.3197 141.743 63.148 135.74" stroke="#8E96AB" stroke-width="3" stroke-miterlimit="10" stroke-linecap="round" stroke-linejoin="round"/>
<path d="M91.9465 147.304C90.3431 148.252 88.5548 148.757 86.6431 148.757C83.6831 148.757 80.9697 147.493 78.9347 145.408" stroke="#8E96AB" stroke-width="3" stroke-miterlimit="10" stroke-linecap="round" stroke-linejoin="round"/>
<path d="M53.7134 65.975C52.2334 63.8265 51.37 61.1092 51.37 58.1392C51.37 50.9984 56.4884 45.1847 62.8401 45.1847" stroke="#8E96AB" stroke-width="3" stroke-miterlimit="10" stroke-linecap="round" stroke-linejoin="round"/>
<path d="M62.3467 45.1843C64.1351 40.6344 68.1434 37.4116 72.8301 37.4116C74.5568 37.4116 76.1602 37.854 77.5785 38.6123" stroke="#8E96AB" stroke-width="3" stroke-miterlimit="10" stroke-linecap="round" stroke-linejoin="round"/>
<path d="M75.4201 43.9836C76.4684 38.0435 81.0935 33.62 86.6435 33.62C90.0969 33.62 93.2419 35.3894 95.3386 38.1699" stroke="#8E96AB" stroke-width="3" stroke-miterlimit="10" stroke-linecap="round" stroke-linejoin="round"/>
<path d="M138.875 90.62C140.54 87.5235 141.465 83.9215 141.465 80.0668C141.465 72.2941 137.642 65.5957 132.03 62.1201" stroke="#8E96AB" stroke-width="3" stroke-miterlimit="10" stroke-linecap="round" stroke-linejoin="round"/>
<path d="M126.727 122.279C135.175 120.131 141.465 111.6 141.465 101.426C141.465 97.4447 140.54 93.7795 138.875 90.6199" stroke="#8E96AB" stroke-width="3" stroke-miterlimit="10" stroke-linecap="round" stroke-linejoin="round"/>
<path d="M121.054 135.298C128.577 135.298 134.62 128.41 134.62 119.942C134.62 117.414 134.065 115.076 133.14 112.991" stroke="#8E96AB" stroke-width="3" stroke-miterlimit="10" stroke-linecap="round" stroke-linejoin="round"/>
<path d="M100.272 141.68C102.43 144.46 105.637 146.229 109.213 146.229C114.887 146.229 119.635 141.743 120.807 135.74" stroke="#8E96AB" stroke-width="3" stroke-miterlimit="10" stroke-linecap="round" stroke-linejoin="round"/>
<path d="M91.9466 147.304C93.55 148.252 95.3383 148.757 97.25 148.757C100.21 148.757 102.923 147.493 104.958 145.408" stroke="#8E96AB" stroke-width="3" stroke-miterlimit="10" stroke-linecap="round" stroke-linejoin="round"/>
<path d="M129.009 67.555C131.167 65.2169 132.524 61.8677 132.524 58.2025C132.524 51.0618 127.405 45.248 121.054 45.248" stroke="#8E96AB" stroke-width="3" stroke-miterlimit="10" stroke-linecap="round" stroke-linejoin="round"/>
<path d="M121.608 45.1843C119.82 40.6344 115.812 37.4116 111.125 37.4116C109.398 37.4116 107.795 37.854 106.377 38.6123" stroke="#8E96AB" stroke-width="3" stroke-miterlimit="10" stroke-linecap="round" stroke-linejoin="round"/>
<path d="M108.474 43.9836C107.425 38.0435 102.8 33.62 97.2501 33.62C95.3385 33.62 93.5501 34.1255 91.9468 35.0734" stroke="#8E96AB" stroke-width="3" stroke-miterlimit="10" stroke-linecap="round" stroke-linejoin="round"/>
<path d="M75.296 67.2385V60.0345" stroke="#C6CDDF" stroke-width="2" stroke-miterlimit="10" stroke-linecap="round" stroke-linejoin="round"/>
<path d="M83.621 67.2385V60.0345" stroke="#C6CDDF" stroke-width="2" stroke-miterlimit="10" stroke-linecap="round" stroke-linejoin="round"/>
<path d="M91.9461 67.2385V60.0345" stroke="#C6CDDF" stroke-width="2" stroke-miterlimit="10" stroke-linecap="round" stroke-linejoin="round"/>
<path d="M100.271 67.2385V60.0345" stroke="#C6CDDF" stroke-width="2" stroke-miterlimit="10" stroke-linecap="round" stroke-linejoin="round"/>
<path d="M108.596 67.2385V60.0345" stroke="#C6CDDF" stroke-width="2" stroke-miterlimit="10" stroke-linecap="round" stroke-linejoin="round"/>
<path d="M75.2957 122.975V115.834" stroke="#C6CDDF" stroke-width="2" stroke-miterlimit="10" stroke-linecap="round" stroke-linejoin="round"/>
<path d="M83.6207 122.975V115.834" stroke="#C6CDDF" stroke-width="2" stroke-miterlimit="10" stroke-linecap="round" stroke-linejoin="round"/>
<path d="M91.9458 122.975V115.834" stroke="#C6CDDF" stroke-width="2" stroke-miterlimit="10" stroke-linecap="round" stroke-linejoin="round"/>
<path d="M100.271 122.975V115.834" stroke="#C6CDDF" stroke-width="2" stroke-miterlimit="10" stroke-linecap="round" stroke-linejoin="round"/>
<path d="M108.596 122.975V115.834" stroke="#C6CDDF" stroke-width="2" stroke-miterlimit="10" stroke-linecap="round" stroke-linejoin="round"/>
<path d="M115.688 74.4425H122.656" stroke="#C6CDDF" stroke-width="2" stroke-miterlimit="10" stroke-linecap="round" stroke-linejoin="round"/>
<path d="M115.688 82.9734H122.656" stroke="#C6CDDF" stroke-width="2" stroke-miterlimit="10" stroke-linecap="round" stroke-linejoin="round"/>
<path d="M115.688 91.5044H122.656" stroke="#C6CDDF" stroke-width="2" stroke-miterlimit="10" stroke-linecap="round" stroke-linejoin="round"/>
<path d="M115.688 100.035H122.656" stroke="#C6CDDF" stroke-width="2" stroke-miterlimit="10" stroke-linecap="round" stroke-linejoin="round"/>
<path d="M115.688 108.567H122.656" stroke="#C6CDDF" stroke-width="2" stroke-miterlimit="10" stroke-linecap="round" stroke-linejoin="round"/>
<path d="M61.2355 74.4425H68.2655" stroke="#C6CDDF" stroke-width="2" stroke-miterlimit="10" stroke-linecap="round" stroke-linejoin="round"/>
<path d="M61.2352 82.9734H68.2653" stroke="#C6CDDF" stroke-width="2" stroke-miterlimit="10" stroke-linecap="round" stroke-linejoin="round"/>
<path d="M61.2352 91.5044H68.2653" stroke="#C6CDDF" stroke-width="2" stroke-miterlimit="10" stroke-linecap="round" stroke-linejoin="round"/>
<path d="M61.2352 100.035H68.2653" stroke="#C6CDDF" stroke-width="2" stroke-miterlimit="10" stroke-linecap="round" stroke-linejoin="round"/>
<path d="M61.2352 108.567H68.2653" stroke="#C6CDDF" stroke-width="2" stroke-miterlimit="10" stroke-linecap="round" stroke-linejoin="round"/>
<g filter="url(#filter0_d_5_284)">
<path d="M110.014 115.834H73.8774C70.7324 115.834 68.204 113.243 68.204 110.02V72.9893C68.204 69.7664 70.7324 67.1755 73.8774 67.1755H110.014C113.159 67.1755 115.688 69.7664 115.688 72.9893V110.02C115.688 113.243 113.159 115.834 110.014 115.834Z" fill="url(#paint1_linear_5_284)"/>
</g>
<path d="M103.971 107.682H79.9205C77.8238 107.682 76.1588 105.976 76.1588 103.827V79.1823C76.1588 77.0337 77.8238 75.3275 79.9205 75.3275H103.971C106.067 75.3275 107.732 77.0337 107.732 79.1823V103.827C107.732 105.976 106.067 107.682 103.971 107.682Z" fill="#393F4E"/>
<path d="M92.7312 94.8109L92.5001 94.134H91.7848H85.9986H85.2953L85.0575 94.7958L84.1144 97.4203H83.3115L87.9891 85.0203H88.6848L88.0126 86.8407L86.0052 92.2781L85.5081 93.6244H86.9433H90.8992H92.3198L91.8406 92.2871L89.8921 86.8497L89.2366 85.0203H89.7943L94.4719 97.4203H93.622L92.7312 94.8109Z" fill="#8E96AB" stroke="#C6CDDF" stroke-width="2"/>
<path d="M99.7284 97.4203V85.0203H100.539V97.4203H99.7284Z" fill="#8E96AB" stroke="#C6CDDF" stroke-width="2"/>
<path d="M51.3077 69.4503C52.0477 66.9226 54.3294 65.0269 57.1044 65.0269C57.7828 65.0269 58.3994 65.1532 58.9544 65.3428" stroke="#8E96AB" stroke-width="3" stroke-miterlimit="10" stroke-linecap="round" stroke-linejoin="round"/>
<path d="M102.368 136.118C102.368 139.531 99.6547 142.311 96.3246 142.311C95.2146 142.311 94.1663 141.995 93.303 141.49" stroke="#8E96AB" stroke-width="3" stroke-miterlimit="10" stroke-linecap="round" stroke-linejoin="round"/>
<defs>
<filter id="filter0_d_5_284" x="46.204" y="56.1755" width="91.4837" height="92.6582" filterUnits="userSpaceOnUse" color-interpolation-filters="sRGB">
<feFlood flood-opacity="0" result="BackgroundImageFix"/>
<feColorMatrix in="SourceAlpha" type="matrix" values="0 0 0 0 0 0 0 0 0 0 0 0 0 0 0 0 0 0 127 0" result="hardAlpha"/>
<feOffset dy="11"/>
<feGaussianBlur stdDeviation="11"/>
<feColorMatrix type="matrix" values="0 0 0 0 0 0 0 0 0 0 0 0 0 0 0 0 0 0 0.27 0"/>
<feBlend mode="normal" in2="BackgroundImageFix" result="effect1_dropShadow_5_284"/>
<feBlend mode="normal" in="SourceGraphic" in2="effect1_dropShadow_5_284" result="shape"/>
</filter>
<linearGradient id="paint0_linear_5_284" x1="91" y1="0.5" x2="91" y2="180.5" gradientUnits="userSpaceOnUse">
<stop stop-color="#2A2E37"/>
<stop offset="1" stop-color="#2A2E37" stop-opacity="0"/>
</linearGradient>
<linearGradient id="paint1_linear_5_284" x1="79.096" y1="79.9483" x2="100.272" y2="114.933" gradientUnits="userSpaceOnUse">
<stop stop-color="#E3EAF7"/>
<stop offset="1" stop-color="#ADB6C8"/>
</linearGradient>
</defs>
</svg>
