<svg width="24" height="24" xmlns="http://www.w3.org/2000/svg">

 <g>
  <title>background</title>
  <rect fill="none" id="canvas_background" height="402" width="582" y="-1" x="-1"/>
 </g>
 <g>
  <title>Layer 1</title>
  <g stroke="null" id="svg_43">
   <g stroke="null" transform="matrix(0.12937747492983917,0,0,0.12937747492983917,5.08204277346181,7.5610221152720065) " id="svg_38">
    <path stroke="null" fill="white" d="m18.614302,-15.715642l-14.8348,14.83477c-11.10944,9.6417 -17.895717,22.5242 -17.895717,36.6755c0,29.8823 30.259817,54.1065 67.587117,54.1065c37.3275,0 67.5875,-24.2242 67.5875,-54.1065c0,-14.1512 -6.787,-27.0335 -17.896,-36.6751l-14.835,-14.83514c-3.563,-3.56319 -8.3958,-5.564971 -13.4349,-5.564971l-42.8432,0c-5.0391,0 -9.8718,2.001771 -13.435,5.564941zm3.0123,24.48517c2.2699,-4.0986 6.4348,-11.619 12.2003,-11.619l37.7664,0c3.2188,-0.5007 10.8149,1.2876 15.4501,12.4458c0.178,0.4283 0.366,0.8786 0.563,1.349c5.848,13.9658 19.113,45.6445 -18.3735,45.6445l-35.406,0c-12.9465,-0.1431 -33.6036,-9.7421 -12.6603,-46.9935c0.1434,-0.2552 0.2968,-0.5322 0.46,-0.8268z" clip-rule="evenodd" fill-rule="evenodd" id="svg_41"/>
    <path stroke="null" fill="white" d="m31.128602,20.560828c0.2796,-2.4596 2.3607,-4.3175 4.8361,-4.3175c2.4754,0 4.5565,1.8579 4.8361,4.3175l0.6232,5.4814c0.0597,0.5254 0.0597,1.056 0,1.5814l-0.6232,5.4814c-0.2796,2.4596 -2.3607,4.3175 -4.8361,4.3175c-2.4754,0 -4.5565,-1.8579 -4.8361,-4.3175l-0.6232,-5.4814c-0.0597,-0.5254 -0.0597,-1.056 0,-1.5814l0.6232,-5.4814z" id="svg_40"/>
    <path stroke="null" fill="white" d="m69.659802,20.560828c0.2797,-2.4596 2.3608,-4.3175 4.8362,-4.3175c2.4753,0 4.5565,1.8579 4.8361,4.3175l0.6232,5.4814c0.0597,0.5254 0.0597,1.056 0,1.5814l-0.6232,5.4814c-0.2796,2.4596 -2.3608,4.3175 -4.8361,4.3175c-2.4754,0 -4.5565,-1.8579 -4.8362,-4.3175l-0.6231,-5.4814c-0.0598,-0.5254 -0.0598,-1.056 0,-1.5814l0.6231,-5.4814z" id="svg_39"/>
   </g>
  </g>
 </g>
</svg>