<svg width="24" height="24" viewBox="0 0 24 24" fill="none" xmlns="http://www.w3.org/2000/svg">
<path d="M21 21.75H16C15.586 21.75 15.25 21.414 15.25 21C15.25 20.586 15.586 20.25 16 20.25H21C21.414 20.25 21.75 20.586 21.75 21C21.75 21.414 21.414 21.75 21 21.75Z" fill="white"/>
<path d="M16.444 15.5562L11.4401 20.5601C10.8501 21.1501 9.90006 21.1501 9.32006 20.5601L5.41003 16.6501L7.53009 14.5302C7.82009 14.2402 7.82009 13.7601 7.53009 13.4701C7.24009 13.1801 6.76003 13.1801 6.47003 13.4701L4.35003 15.5901L3.44006 14.6801C2.85006 14.1001 2.85006 13.1501 3.44006 12.5601L8.44403 7.55615L16.444 15.5562Z" fill="white"/>
<path opacity="0.4" d="M11.1682 5.54607L13.9101 6.64306C14.5241 6.88806 15.2261 6.70306 15.6381 6.18706L17.6181 3.71203C18.3251 2.82803 19.6431 2.75508 20.4431 3.55608C21.2431 4.35608 21.1701 5.67403 20.2871 6.38103L17.8121 8.36108C17.2961 8.77408 17.1111 9.47604 17.3561 10.089L18.4531 12.831C18.7501 13.574 18.5761 14.422 18.0101 14.988L17.2962 15.7021C17.1012 15.8971 16.7841 15.8971 16.5891 15.7021L8.29615 7.40905C8.10115 7.21405 8.10115 6.89708 8.29615 6.70208L9.01014 5.98803C9.57714 5.42303 10.4252 5.24907 11.1682 5.54607Z" fill="white"/>
</svg>
