<svg width="222" height="181" viewBox="0 0 222 181" fill="none" xmlns="http://www.w3.org/2000/svg">
<path d="M88.42 180.019C137.056 180.019 176.484 140.563 176.484 91.8915C176.484 43.2202 137.056 3.76422 88.42 3.76422C39.7836 3.76422 0.356079 43.2202 0.356079 91.8915C0.356079 140.563 39.7836 180.019 88.42 180.019Z" fill="url(#paint0_linear_5_557)"/>
<mask id="mask0_5_557" style="mask-type:alpha" maskUnits="userSpaceOnUse" x="2" y="0" width="220" height="181">
<path d="M150.559 159.709C134.904 172.921 114.679 180.884 92.5949 180.884C42.9164 180.884 2.64393 140.59 2.64393 90.8842C2.64393 41.1786 42.9164 0.884216 92.5949 0.884216C108.781 0.884216 123.969 5.16192 137.091 12.649H221.644V159.709H150.559Z" fill="#2A2E37"/>
</mask>
<g mask="url(#mask0_5_557)">
<path d="M62.4881 114.409C61.6072 114.799 60.8964 115.54 60.5279 116.454L61.4554 116.828C61.325 117.151 61.253 117.503 61.253 117.87V120.306H60.253V125.179H61.253V130.051H60.253V134.923H61.253V139.795H60.253V144.668H61.253V149.54H60.253V154.412H61.253V156.848C61.253 157.215 61.325 157.567 61.4554 157.891L60.5279 158.265C60.8964 159.179 61.6072 159.919 62.4881 160.31L62.893 159.395C63.2058 159.534 63.5451 159.609 63.8978 159.609H66.2171V160.609H70.8559V159.609H75.4947V160.609H80.1334V159.609H84.7722V160.609H89.411V159.609H94.0497V160.609H98.6885V159.609H103.327V160.609H107.966V159.609H112.605V160.609H117.244V159.609H119.563C119.916 159.609 120.255 159.534 120.568 159.395L120.973 160.31C121.854 159.919 122.564 159.179 122.933 158.265L122.005 157.891C122.136 157.567 122.208 157.215 122.208 156.848V154.412H123.208V149.54H122.208V144.668H123.208V139.795H122.208V134.923H123.208V130.051H122.208V125.179H123.208V120.306H122.208V117.87C122.208 117.503 122.136 117.151 122.005 116.828L122.933 116.454C122.564 115.54 121.854 114.799 120.973 114.409L120.568 115.324C120.255 115.185 119.916 115.109 119.563 115.109H117.244V114.109H112.605V115.109H107.966V114.109H103.327V115.109H98.6885V114.109H94.0497V115.109H89.411V114.109H84.7722V115.109H80.1334V114.109H75.4947V115.109H70.8559V114.109H66.2171V115.109H63.8978C63.5451 115.109 63.2058 115.185 62.893 115.324L62.4881 114.409Z" fill="#C6CDDF" fill-opacity="0.1" stroke="#8E96AB" stroke-width="2" stroke-miterlimit="10" stroke-dasharray="5.01 5.01"/>
<path d="M92.6754 130.609V143.001" stroke="#5C6479" stroke-width="1.5" stroke-miterlimit="10" stroke-linecap="round" stroke-linejoin="round"/>
<path d="M86.4843 136.805H98.8669" stroke="#5C6479" stroke-width="1.5" stroke-miterlimit="10" stroke-linecap="round" stroke-linejoin="round"/>
<g filter="url(#filter0_d_5_557)">
<path d="M45.3948 21.8842H-11.8267C-13.3703 21.8842 -14.6933 23.0964 -14.6933 24.7495V46.0189C-14.6933 47.5617 -13.4805 48.8842 -11.8267 48.8842H45.3948C46.9383 48.8842 48.2614 47.6719 48.2614 46.0189V24.6393C48.1511 23.0964 46.9383 21.8842 45.3948 21.8842Z" fill="#5C6479"/>
</g>
<g filter="url(#filter1_d_5_557)">
<path d="M196.786 77.3842H139.565C138.021 77.3842 136.698 78.5965 136.698 80.2495V101.519C136.698 103.062 137.911 104.384 139.565 104.384H196.786C198.33 104.384 199.653 103.172 199.653 101.519V80.1393C199.542 78.5965 198.33 77.3842 196.786 77.3842Z" fill="#5C6479"/>
</g>
<g filter="url(#filter2_d_5_557)">
<path d="M120.823 21.8842H63.6012C62.0576 21.8842 60.7346 23.0964 60.7346 24.7495V46.0189C60.7346 47.5617 61.9474 48.8842 63.6012 48.8842H120.823C122.366 48.8842 123.689 47.6719 123.689 46.0189V24.6393C123.689 23.0964 122.366 21.8842 120.823 21.8842Z" fill="#5C6479"/>
</g>
<g filter="url(#filter3_d_5_557)">
<path d="M195.935 21.8842H140.27C138.281 21.8842 136.625 23.4834 136.625 25.4026V61.8658C136.625 63.7849 138.281 65.3842 140.27 65.3842H195.935C197.923 65.3842 199.58 63.7849 199.58 61.8658V25.4026C199.58 23.3768 197.923 21.8842 195.935 21.8842Z" fill="#5C6479"/>
</g>
<g filter="url(#filter4_d_5_557)">
<path d="M46.1158 99.8842H-9.54944C-11.5375 99.8842 -13.1942 101.483 -13.1942 103.403V139.866C-13.1942 141.785 -11.5375 143.384 -9.54944 143.384H46.1158C48.1038 143.384 49.7605 141.785 49.7605 139.866V103.403C49.7605 101.377 48.1038 99.8842 46.1158 99.8842Z" fill="#5C6479"/>
</g>
<path fill-rule="evenodd" clip-rule="evenodd" d="M37.1407 36.3842C37.1407 36.6604 36.9169 36.8842 36.6407 36.8842H-3.08805C-3.36419 36.8842 -3.58805 36.6604 -3.58805 36.3842V34.3842C-3.58805 34.1081 -3.36419 33.8842 -3.08805 33.8842H36.6407C36.9169 33.8842 37.1407 34.1081 37.1407 34.3842V36.3842Z" fill="#8E96AB"/>
<path fill-rule="evenodd" clip-rule="evenodd" d="M188.532 91.8842C188.532 92.1603 188.308 92.3842 188.032 92.3842H148.303C148.027 92.3842 147.803 92.1603 147.803 91.8842V89.8842C147.803 89.608 148.027 89.3842 148.303 89.3842H188.032C188.308 89.3842 188.532 89.608 188.532 89.8842V91.8842Z" fill="#8E96AB"/>
<g filter="url(#filter5_d_5_557)">
<path d="M45.395 60.8842H-11.8265C-13.37 60.8842 -14.6931 62.0965 -14.6931 63.7495V85.0189C-14.6931 86.5618 -13.4803 87.8842 -11.8265 87.8842H45.395C46.9386 87.8842 48.2616 86.672 48.2616 85.0189V63.7495C48.1514 62.2067 46.9386 60.8842 45.395 60.8842Z" fill="#5C6479"/>
</g>
<path fill-rule="evenodd" clip-rule="evenodd" d="M37.1407 75.3842C37.1407 75.6604 36.9169 75.8842 36.6407 75.8842H-3.08805C-3.36419 75.8842 -3.58805 75.6604 -3.58805 75.3842V73.3842C-3.58805 73.1081 -3.36419 72.8842 -3.08805 72.8842H36.6407C36.9169 72.8842 37.1407 73.1081 37.1407 73.3842V75.3842Z" fill="#8E96AB"/>
<path fill-rule="evenodd" clip-rule="evenodd" d="M112.684 36.3842C112.684 36.6604 112.46 36.8842 112.184 36.8842H72.3396C72.0635 36.8842 71.8396 36.6604 71.8396 36.3842V34.3842C71.8396 34.1081 72.0635 33.8842 72.3396 33.8842H112.184C112.46 33.8842 112.684 34.1081 112.684 34.3842V36.3842Z" fill="#8E96AB"/>
<g filter="url(#filter6_d_5_557)">
<path d="M120.16 59.8591H64.495C62.5069 59.8591 60.8502 61.4584 60.8502 63.3775V99.8407C60.8502 101.76 62.5069 103.359 64.495 103.359H120.16C122.148 103.359 123.805 101.76 123.805 99.8407V63.3775C123.805 61.4584 122.148 59.8591 120.16 59.8591Z" fill="#5C6479"/>
</g>
<path fill-rule="evenodd" clip-rule="evenodd" d="M112.684 75.0977C112.684 75.3739 112.46 75.5977 112.184 75.5977H72.3396C72.0635 75.5977 71.8396 75.3739 71.8396 75.0977V73.0977C71.8396 72.8216 72.0635 72.5977 72.3396 72.5977H112.184C112.46 72.5977 112.684 72.8216 112.684 73.0977V75.0977Z" fill="#8E96AB"/>
<path fill-rule="evenodd" clip-rule="evenodd" d="M97.8772 86.9054C97.8772 87.1816 97.6533 87.4054 97.3772 87.4054H72.3396C72.0635 87.4054 71.8396 87.1816 71.8396 86.9054V84.9054C71.8396 84.6293 72.0635 84.4054 72.3396 84.4054H97.3772C97.6533 84.4054 97.8772 84.6293 97.8772 84.9054V86.9054Z" fill="#8E96AB"/>
<path fill-rule="evenodd" clip-rule="evenodd" d="M188.459 36.7757C188.459 37.0518 188.235 37.2757 187.959 37.2757H148.114C147.838 37.2757 147.614 37.0518 147.614 36.7757V34.7757C147.614 34.4995 147.838 34.2757 148.114 34.2757H187.959C188.235 34.2757 188.459 34.4995 188.459 34.7757V36.7757Z" fill="#8E96AB"/>
<path fill-rule="evenodd" clip-rule="evenodd" d="M38.6396 114.776C38.6396 115.052 38.4158 115.276 38.1396 115.276H-1.70476C-1.9809 115.276 -2.20476 115.052 -2.20476 114.776V112.776C-2.20476 112.5 -1.9809 112.276 -1.70476 112.276H38.1396C38.4158 112.276 38.6396 112.5 38.6396 112.776V114.776Z" fill="#8E96AB"/>
<path fill-rule="evenodd" clip-rule="evenodd" d="M173.652 48.5834C173.652 48.8596 173.428 49.0834 173.152 49.0834H148.114C147.838 49.0834 147.614 48.8596 147.614 48.5834V46.5834C147.614 46.3073 147.838 46.0834 148.114 46.0834H173.152C173.428 46.0834 173.652 46.3073 173.652 46.5834V48.5834Z" fill="#8E96AB"/>
<path fill-rule="evenodd" clip-rule="evenodd" d="M23.8327 126.583C23.8327 126.86 23.6089 127.083 23.3327 127.083H-1.70476C-1.9809 127.083 -2.20476 126.86 -2.20476 126.583V124.583C-2.20476 124.307 -1.9809 124.083 -1.70476 124.083H23.3327C23.6089 124.083 23.8327 124.307 23.8327 124.583V126.583Z" fill="#8E96AB"/>
</g>
<defs>
<filter id="filter0_d_5_557" x="-36.6933" y="10.8842" width="106.955" height="71" filterUnits="userSpaceOnUse" color-interpolation-filters="sRGB">
<feFlood flood-opacity="0" result="BackgroundImageFix"/>
<feColorMatrix in="SourceAlpha" type="matrix" values="0 0 0 0 0 0 0 0 0 0 0 0 0 0 0 0 0 0 127 0" result="hardAlpha"/>
<feOffset dy="11"/>
<feGaussianBlur stdDeviation="11"/>
<feColorMatrix type="matrix" values="0 0 0 0 0 0 0 0 0 0 0 0 0 0 0 0 0 0 0.27 0"/>
<feBlend mode="normal" in2="BackgroundImageFix" result="effect1_dropShadow_5_557"/>
<feBlend mode="normal" in="SourceGraphic" in2="effect1_dropShadow_5_557" result="shape"/>
</filter>
<filter id="filter1_d_5_557" x="114.698" y="66.3842" width="106.955" height="71" filterUnits="userSpaceOnUse" color-interpolation-filters="sRGB">
<feFlood flood-opacity="0" result="BackgroundImageFix"/>
<feColorMatrix in="SourceAlpha" type="matrix" values="0 0 0 0 0 0 0 0 0 0 0 0 0 0 0 0 0 0 127 0" result="hardAlpha"/>
<feOffset dy="11"/>
<feGaussianBlur stdDeviation="11"/>
<feColorMatrix type="matrix" values="0 0 0 0 0 0 0 0 0 0 0 0 0 0 0 0 0 0 0.27 0"/>
<feBlend mode="normal" in2="BackgroundImageFix" result="effect1_dropShadow_5_557"/>
<feBlend mode="normal" in="SourceGraphic" in2="effect1_dropShadow_5_557" result="shape"/>
</filter>
<filter id="filter2_d_5_557" x="38.7346" y="10.8842" width="106.955" height="71" filterUnits="userSpaceOnUse" color-interpolation-filters="sRGB">
<feFlood flood-opacity="0" result="BackgroundImageFix"/>
<feColorMatrix in="SourceAlpha" type="matrix" values="0 0 0 0 0 0 0 0 0 0 0 0 0 0 0 0 0 0 127 0" result="hardAlpha"/>
<feOffset dy="11"/>
<feGaussianBlur stdDeviation="11"/>
<feColorMatrix type="matrix" values="0 0 0 0 0 0 0 0 0 0 0 0 0 0 0 0 0 0 0.27 0"/>
<feBlend mode="normal" in2="BackgroundImageFix" result="effect1_dropShadow_5_557"/>
<feBlend mode="normal" in="SourceGraphic" in2="effect1_dropShadow_5_557" result="shape"/>
</filter>
<filter id="filter3_d_5_557" x="114.625" y="10.8842" width="106.955" height="87.5" filterUnits="userSpaceOnUse" color-interpolation-filters="sRGB">
<feFlood flood-opacity="0" result="BackgroundImageFix"/>
<feColorMatrix in="SourceAlpha" type="matrix" values="0 0 0 0 0 0 0 0 0 0 0 0 0 0 0 0 0 0 127 0" result="hardAlpha"/>
<feOffset dy="11"/>
<feGaussianBlur stdDeviation="11"/>
<feColorMatrix type="matrix" values="0 0 0 0 0 0 0 0 0 0 0 0 0 0 0 0 0 0 0.27 0"/>
<feBlend mode="normal" in2="BackgroundImageFix" result="effect1_dropShadow_5_557"/>
<feBlend mode="normal" in="SourceGraphic" in2="effect1_dropShadow_5_557" result="shape"/>
</filter>
<filter id="filter4_d_5_557" x="-35.1942" y="88.8842" width="106.955" height="87.5" filterUnits="userSpaceOnUse" color-interpolation-filters="sRGB">
<feFlood flood-opacity="0" result="BackgroundImageFix"/>
<feColorMatrix in="SourceAlpha" type="matrix" values="0 0 0 0 0 0 0 0 0 0 0 0 0 0 0 0 0 0 127 0" result="hardAlpha"/>
<feOffset dy="11"/>
<feGaussianBlur stdDeviation="11"/>
<feColorMatrix type="matrix" values="0 0 0 0 0 0 0 0 0 0 0 0 0 0 0 0 0 0 0.27 0"/>
<feBlend mode="normal" in2="BackgroundImageFix" result="effect1_dropShadow_5_557"/>
<feBlend mode="normal" in="SourceGraphic" in2="effect1_dropShadow_5_557" result="shape"/>
</filter>
<filter id="filter5_d_5_557" x="-36.6931" y="49.8842" width="106.955" height="71" filterUnits="userSpaceOnUse" color-interpolation-filters="sRGB">
<feFlood flood-opacity="0" result="BackgroundImageFix"/>
<feColorMatrix in="SourceAlpha" type="matrix" values="0 0 0 0 0 0 0 0 0 0 0 0 0 0 0 0 0 0 127 0" result="hardAlpha"/>
<feOffset dy="11"/>
<feGaussianBlur stdDeviation="11"/>
<feColorMatrix type="matrix" values="0 0 0 0 0 0 0 0 0 0 0 0 0 0 0 0 0 0 0.27 0"/>
<feBlend mode="normal" in2="BackgroundImageFix" result="effect1_dropShadow_5_557"/>
<feBlend mode="normal" in="SourceGraphic" in2="effect1_dropShadow_5_557" result="shape"/>
</filter>
<filter id="filter6_d_5_557" x="38.8502" y="48.8591" width="106.955" height="87.5" filterUnits="userSpaceOnUse" color-interpolation-filters="sRGB">
<feFlood flood-opacity="0" result="BackgroundImageFix"/>
<feColorMatrix in="SourceAlpha" type="matrix" values="0 0 0 0 0 0 0 0 0 0 0 0 0 0 0 0 0 0 127 0" result="hardAlpha"/>
<feOffset dy="11"/>
<feGaussianBlur stdDeviation="11"/>
<feColorMatrix type="matrix" values="0 0 0 0 0 0 0 0 0 0 0 0 0 0 0 0 0 0 0.27 0"/>
<feBlend mode="normal" in2="BackgroundImageFix" result="effect1_dropShadow_5_557"/>
<feBlend mode="normal" in="SourceGraphic" in2="effect1_dropShadow_5_557" result="shape"/>
</filter>
<linearGradient id="paint0_linear_5_557" x1="88.42" y1="3.76422" x2="88.42" y2="180.019" gradientUnits="userSpaceOnUse">
<stop stop-color="#2A2E37"/>
<stop offset="1" stop-color="#2A2E37" stop-opacity="0"/>
</linearGradient>
</defs>
</svg>
