<svg width="42" height="43" viewBox="0 0 42 43" fill="none" xmlns="http://www.w3.org/2000/svg">
<rect y="0.5" width="42" height="42" rx="8" fill="#BF2600"/>
<rect y="0.5" width="42" height="42" rx="8" fill="url(#paint0_linear_143_847)" fill-opacity="0.2"/>
<path d="M29.75 15.5C29.75 15.914 29.414 16.25 29 16.25H13C12.586 16.25 12.25 15.914 12.25 15.5C12.25 15.086 12.586 14.75 13 14.75H17.214C17.307 14.568 17.379 14.362 17.456 14.132L17.658 13.525C17.862 12.913 18.435 12.5 19.081 12.5H22.919C23.565 12.5 24.138 12.913 24.342 13.525L24.544 14.132C24.621 14.362 24.693 14.568 24.786 14.75H29C29.414 14.75 29.75 15.086 29.75 15.5ZM27.56 17.25C27.733 17.25 27.871 17.397 27.859 17.57L27.19 27.7C27.08 29.28 26.25 30.5 24.19 30.5H17.81C15.75 30.5 14.92 29.28 14.81 27.7L14.141 17.57C14.13 17.397 14.267 17.25 14.44 17.25H27.56ZM19.75 20.5C19.75 20.09 19.41 19.75 19 19.75C18.59 19.75 18.25 20.09 18.25 20.5V25.5C18.25 25.91 18.59 26.25 19 26.25C19.41 26.25 19.75 25.91 19.75 25.5V20.5ZM23.75 20.5C23.75 20.09 23.41 19.75 23 19.75C22.59 19.75 22.25 20.09 22.25 20.5V25.5C22.25 25.91 22.59 26.25 23 26.25C23.41 26.25 23.75 25.91 23.75 25.5V20.5Z" fill="white"/>
<defs>
<linearGradient id="paint0_linear_143_847" x1="21" y1="0.5" x2="21" y2="42.5" gradientUnits="userSpaceOnUse">
<stop stop-color="white" stop-opacity="0.4"/>
<stop offset="1" stop-color="white" stop-opacity="0"/>
</linearGradient>
</defs>
</svg>
