<svg width="21" height="20" viewBox="0 0 21 20" fill="none" xmlns="http://www.w3.org/2000/svg">
<path d="M18 4.375H15.0342C14.2833 4.375 14.2517 4.28 14.0458 3.66333L13.8775 3.1575C13.6217 2.39083 12.9075 1.875 12.0992 1.875H8.90083C8.09249 1.875 7.3775 2.39 7.1225 3.1575L6.95417 3.66333C6.74834 4.28083 6.71666 4.375 5.96583 4.375H3C2.655 4.375 2.375 4.655 2.375 5C2.375 5.345 2.655 5.625 3 5.625H4.08166L4.72084 15.2075C4.84417 17.0617 5.98084 18.125 7.83917 18.125H13.1617C15.0192 18.125 16.1558 17.0617 16.28 15.2075L16.9192 5.625H18C18.345 5.625 18.625 5.345 18.625 5C18.625 4.655 18.345 4.375 18 4.375ZM8.30833 3.5525C8.39416 3.29667 8.63166 3.125 8.90083 3.125H12.0992C12.3683 3.125 12.6067 3.29667 12.6917 3.5525L12.86 4.05833C12.8967 4.1675 12.9333 4.27333 12.9733 4.375H8.025C8.065 4.2725 8.10251 4.16666 8.13917 4.05833L8.30833 3.5525ZM15.0317 15.1242C14.9525 16.3183 14.3575 16.875 13.1608 16.875H7.83833C6.64167 16.875 6.0475 16.3192 5.9675 15.1242L5.33417 5.625H5.965C6.06917 5.625 6.15583 5.61417 6.24917 5.6075C6.2775 5.61167 6.30333 5.625 6.3325 5.625H14.6658C14.6958 5.625 14.7208 5.61167 14.7492 5.6075C14.8425 5.61417 14.9292 5.625 15.0333 5.625H15.6642L15.0317 15.1242ZM12.7917 9.16667V13.3333C12.7917 13.6783 12.5117 13.9583 12.1667 13.9583C11.8217 13.9583 11.5417 13.6783 11.5417 13.3333V9.16667C11.5417 8.82167 11.8217 8.54167 12.1667 8.54167C12.5117 8.54167 12.7917 8.82167 12.7917 9.16667ZM9.45833 9.16667V13.3333C9.45833 13.6783 9.17833 13.9583 8.83333 13.9583C8.48833 13.9583 8.20833 13.6783 8.20833 13.3333V9.16667C8.20833 8.82167 8.48833 8.54167 8.83333 8.54167C9.17833 8.54167 9.45833 8.82167 9.45833 9.16667Z" fill="#F4F5F7"/>
</svg>
