<svg width="40" height="40" xmlns="http://www.w3.org/2000/svg">

 <g>
  <title>background</title>
  <rect fill="none" id="canvas_background" height="402" width="582" y="-1" x="-1"/>
 </g>
 <g>
  <title>Layer 1</title>
  <g id="envelope">
   <path fill="#ffffff" d="m10,33.3333l20,0c3.3333,0 5,-1.6667 5,-5l0,-15c0,-3.33338 -1.6667,-5.00005 -5,-5.00005l-20,0c-3.33333,0 -5,1.66667 -5,5.00005l0,15c0,3.3333 1.66667,5 5,5z" id="Vector"/>
   <path fill="#673cd5" d="m20,22.5232c-0.6,0 -1.2034,-0.1866 -1.7151,-0.5583l-8.1864,-5.955c-0.55836,-0.405 -0.68176,-1.1884 -0.2751,-1.7467c0.405,-0.5567 1.1831,-0.6833 1.7464,-0.275l8.1869,5.9533c0.1466,0.105 0.3416,0.1067 0.4883,0l8.1868,-5.9533c0.5617,-0.4083 1.3414,-0.2817 1.7464,0.275c0.4067,0.5583 0.2833,1.34 -0.275,1.7467l-8.1865,5.9533c-0.5133,0.375 -1.1167,0.56 -1.7167,0.56z" id="Vector_2"/>
  </g>
 </g>
</svg>