<svg width="40" height="40" viewBox="0 0 40 40" fill="none" xmlns="http://www.w3.org/2000/svg">
<g id="envelope">
<path id="Vector" opacity="0.4" d="M10 33.3333H30C33.3333 33.3333 35 31.6666 35 28.3333V13.3333C35 9.99992 33.3333 8.33325 30 8.33325H10C6.66667 8.33325 5 9.99992 5 13.3333V28.3333C5 31.6666 6.66667 33.3333 10 33.3333Z" fill="white"/>
<path id="Vector_2" d="M20 22.5232C19.4 22.5232 18.7966 22.3366 18.2849 21.9649L10.0985 16.0099C9.54014 15.6049 9.41674 14.8215 9.8234 14.2632C10.2284 13.7065 11.0065 13.5799 11.5698 13.9882L19.7567 19.9415C19.9033 20.0465 20.0983 20.0482 20.245 19.9415L28.4318 13.9882C28.9935 13.5799 29.7732 13.7065 30.1782 14.2632C30.5849 14.8215 30.4615 15.6032 29.9032 16.0099L21.7167 21.9632C21.2034 22.3382 20.6 22.5232 20 22.5232Z" fill="white"/>
</g>
</svg>
