<svg width="1024" height="1024" xmlns="http://www.w3.org/2000/svg" class="icon">

 <g>
  <title>background</title>
  <rect fill="none" id="canvas_background" height="402" width="582" y="-1" x="-1"/>
 </g>
 <g>
  <title>Layer 1</title>
  <path id="svg_2" fill="#ffffff" d="m530.73502,543.7649l187.03673,-129.77633c0,-142.83755 -112.22204,-246.8049 -112.22204,-246.8049l-399.25551,0c224.65307,142.83755 324.44082,376.58123 324.44082,376.58123z"/>
  <path id="svg_3" fill="#59595b" d="m929.93829,387.97061s-37.40735,26.01796 -87.35347,155.79429c-56.00654,145.76326 -212.11429,233.84816 -212.11429,233.84816s-194.35102,-121.41714 -274.91265,-169.79592c68.64979,20.89796 143.04653,-56.52898 187.55918,-102.92245c37.51184,-38.97469 74.91918,-90.90612 162.27265,-129.88081c87.24898,-38.9747 224.54857,12.95673 224.54858,12.95673zm-574.38041,219.84653c-8.2547,-2.50775 -16.4049,-6.47836 -24.45062,-12.01632c-20.89795,-14.52409 -6.79183,-6.79184 24.45062,12.01632z"/>
  <path id="svg_4" fill="#7b7c7f" d="m94.04082,362.0258l0,0.10449c533.94285,505.20816 702.06693,260.91102 710.84408,247.22285c-7.10531,11.2849 -116.50612,182.54368 -249.20816,220.16c-324.12735,91.95102 -461.63592,-77.94938 -461.63592,-77.94938l0,-389.53796zm710.84408,636.8653l0.31347,-0.62694l-0.31347,0.62694z"/>
 </g>
</svg>