<svg width="1024" height="1024" xmlns="http://www.w3.org/2000/svg" class="icon">

 <g>
  <title>background</title>
  <rect fill="none" id="canvas_background" height="402" width="582" y="-1" x="-1"/>
 </g>
 <g>
  <title>Layer 1</title>
  <path id="svg_2" fill="#00DAB8" d="m530.73502,543.764898l187.036735,-129.776327c0,-142.837551 -112.222041,-246.804898 -112.222041,-246.804898l-399.25551,0c224.653061,142.837551 324.440816,376.581224 324.440816,376.581225z"/>
  <path id="svg_3" fill="#0C3AA0" d="m929.938286,387.970612s-37.407347,26.017959 -87.35347,155.794286c-56.006531,145.763265 -212.114286,233.848163 -212.114285,233.848163s-194.35102,-121.417143 -274.912653,-169.795918c68.649796,20.897959 143.046531,-56.52898 187.559183,-102.922449c37.511837,-38.974694 74.919184,-90.906122 162.272653,-129.880816c87.24898,-38.974694 224.548571,12.956735 224.548572,12.956734zm-574.380408,219.846531c-8.254694,-2.507755 -16.404898,-6.478367 -24.450613,-12.016327c-20.897959,-14.524082 -6.791837,-6.791837 24.450613,12.016327z"/>
  <path id="svg_4" fill="#296DFF" d="m94.040816,362.025796l0,0.10449c533.942857,505.208163 702.066939,260.91102 710.844082,247.222857c-7.105306,11.284898 -116.506122,182.543673 -249.208163,220.16c-324.127347,91.95102 -461.635919,-77.949388 -461.635919,-77.949388l0,-389.537959zm710.844082,636.865306l0.313469,-0.626939l-0.313469,0.626939z"/>
 </g>
</svg>