<svg width="40" height="40" xmlns="http://www.w3.org/2000/svg">

 <g>
  <title>background</title>
  <rect fill="none" id="canvas_background" height="402" width="582" y="-1" x="-1"/>
 </g>
 <g>
  <title>Layer 1</title>
  <g id="folder-connection">
   <path fill="#673cd5" d="m31.6667,32.0833l-8.5799,0c-0.3384,-0.8333 -1.0018,-1.4983 -1.8368,-1.8366l0,-5.2467l-2.5,0l0,5.2467c-0.8333,0.3383 -1.4984,1.0016 -1.8367,1.8366l-8.57996,0c-0.69,0 -1.25,0.56 -1.25,1.25c0,0.69 0.56,1.25 1.25,1.25l8.57996,0c0.495,1.22 1.6884,2.0834 3.0867,2.0834c1.3983,0 2.5918,-0.8634 3.0868,-2.0834l8.5799,0c0.69,0 1.25,-0.56 1.25,-1.25c0,-0.69 -0.56,-1.25 -1.25,-1.25z" id="Vector"/>
   <path fill="#ffffff" d="m28.3333,6.66659l-8.3333,0l-3.3333,-3.33334l-5,0c-3.33338,0 -5.00004,1.66667 -5.00004,5l0,11.66665c0,3.3334 1.66666,5 5.00004,5l7.0833,0l2.5,0l7.0833,0c3.3334,0 5,-1.6666 5,-5l0,-8.3333c0,-3.33335 -1.6666,-5.00001 -5,-5.00001z" opacity="0.99" id="Vector_2"/>
  </g>
 </g>
</svg>