<svg width="40" height="40" viewBox="0 0 40 40" fill="none" xmlns="http://www.w3.org/2000/svg">
<g id="folder-connection">
<path id="Vector" d="M31.6667 32.0833H23.0868C22.7484 31.25 22.085 30.585 21.25 30.2467V25H18.75V30.2467C17.9167 30.585 17.2516 31.2483 16.9133 32.0833H8.33334C7.64334 32.0833 7.08334 32.6433 7.08334 33.3333C7.08334 34.0233 7.64334 34.5833 8.33334 34.5833H16.9133C17.4083 35.8033 18.6017 36.6667 20 36.6667C21.3983 36.6667 22.5918 35.8033 23.0868 34.5833H31.6667C32.3567 34.5833 32.9167 34.0233 32.9167 33.3333C32.9167 32.6433 32.3567 32.0833 31.6667 32.0833Z" fill="white"/>
<path id="Vector_2" opacity="0.4" d="M28.3333 6.66659H20L16.6667 3.33325H11.6667C8.33332 3.33325 6.66666 4.99992 6.66666 8.33325V19.9999C6.66666 23.3333 8.33332 24.9999 11.6667 24.9999H18.75H21.25H28.3333C31.6667 24.9999 33.3333 23.3333 33.3333 19.9999V11.6666C33.3333 8.33325 31.6667 6.66659 28.3333 6.66659Z" fill="white"/>
</g>
</svg>
