<svg width="40" height="40" viewBox="0 0 40 40" fill="none" xmlns="http://www.w3.org/2000/svg">
<g id="globe">
<path id="Vector" opacity="0.4" d="M11.3833 21.25C11.6333 26.3833 13.3666 31.6167 16.3833 36.2667C9.31661 34.7 3.9333 28.65 3.3833 21.25H11.3833Z" fill="#C1C7D0"/>
<path id="Vector_2" opacity="0.4" d="M11.3833 18.7501H3.3833C3.9333 11.3501 9.31661 5.30007 16.3833 3.7334C13.3666 8.3834 11.6333 13.6167 11.3833 18.7501Z" fill="#C1C7D0"/>
<path id="Vector_3" d="M20.8333 4.04991C24 8.54991 25.85 13.7166 26.1167 18.7499H13.8833C14.15 13.7166 16 8.54991 19.1667 4.04991L19.6666 3.33325H20.3333L20.8333 4.04991Z" fill="#C1C7D0"/>
<path id="Vector_4" d="M26.1167 21.25C25.85 26.2833 24 31.45 20.8333 35.95L20.3333 36.6667H19.6666L19.1667 35.95C16 31.45 14.15 26.2833 13.8833 21.25H26.1167Z" fill="#C1C7D0"/>
<path id="Vector_5" opacity="0.4" d="M36.6167 21.25C36.0667 28.65 30.6834 34.7 23.6167 36.2667C26.6334 31.6167 28.3667 26.3833 28.6167 21.25H36.6167Z" fill="#C1C7D0"/>
<path id="Vector_6" opacity="0.4" d="M28.6167 18.7501C28.3667 13.6167 26.6334 8.3834 23.6167 3.7334C30.6834 5.30007 36.0667 11.3501 36.6167 18.7501H28.6167Z" fill="#C1C7D0"/>
</g>
</svg>
