<svg width="40" height="40" xmlns="http://www.w3.org/2000/svg">

 <g>
  <title>background</title>
  <rect fill="none" id="canvas_background" height="402" width="582" y="-1" x="-1"/>
 </g>
 <g>
  <title>Layer 1</title>
  <g id="file-import-alt">
   <path opacity="0.4" fill="white" d="m27.5,15c-3.3333,0 -5,-1.6667 -5,-5l0,-5l-10,0c-3.33333,0 -5,1.66667 -5,5l0,20c0,3.3333 1.66667,5 5,5l15,0c3.3333,0 5,-1.6667 5,-5l0,-15l-5,0z" id="Vector"/>
   <path fill="#ffffff" d="m27.5,15l5,0l-10,-10l0,5c0,3.3333 1.6667,5 5,5z" id="Vector_2"/>
  </g>
  <g stroke="null" id="svg_22">
   <g opacity="0.4" stroke="null" transform="matrix(0.035651119453309635,0,0,0.035651119453309635,-71.61332944880225,-64.82206500805405) " id="svg_21">
    <title fill="#ffffff" stroke="null" transform="translate(-2.2737367544323206e-13,-1.9892692565917969) translate(-2.2737367544323206e-13,-1.9892692565917969) translate(-2.2737367544323206e-13,-1.9892692565917969) translate(-2.2737367544323206e-13,-1.9892692565917969) translate(-2.2737367544323206e-13,-1.9892692565917969) translate(-2.2737367544323206e-13,-1.9892692565917969) translate(-2.2737367544323206e-13,-1.9892692565917969) translate(-2.2737367544323206e-13,-1.9892692565917969) translate(-2.2737367544323206e-13,-1.9892692565917969) translate(-2.2737367544323206e-13,-1.9892692565917969) translate(-2.2737367544323206e-13,-1.9892692565917969) translate(-2.2737367544323206e-13,-1.9892692565917969) translate(-2.2737367544323206e-13,-1.9892692565917969) translate(-2.2737367544323206e-13,-1.9892692565917969) translate(-2.2737367544323206e-13,-1.9892692565917969) translate(-2.2737367544323206e-13,-1.9892692565917969) translate(-2.2737367544323206e-13,-1.9892692565917969) translate(-2.2737367544323206e-13,-1.9892692565917969) translate(-2.2737367544323206e-13,-1.9892692565917969) translate(-2.2737367544323206e-13,-1.9892692565917969) translate(-2.2737367544323206e-13,-1.9892692565917969) translate(-1.9892692565917969,2.2737367544323206e-13) translate(1.9892692565917969,2.2737367544323206e-13) translate(-1.9892692565917969,2.2737367544323206e-13) translate(-1.9892692565917969,2.2737367544323206e-13) translate(1.9892692565917969,2.2737367544323206e-13) translate(1.9892692565917969,2.2737367544323206e-13) translate(1.9892692565917969,2.2737367544323206e-13) translate(1.9892692565917969,2.2737367544323206e-13) translate(1.9892692565917969,2.2737367544323206e-13) translate(1.9892692565917969,2.2737367544323206e-13) translate(1.9892692565917969,2.2737367544323206e-13) translate(1.9892692565917969,2.2737367544323206e-13) translate(1.9892692565917969,2.2737367544323206e-13) translate(1.9892692565917969,2.2737367544323206e-13) translate(1.9892692565917969,2.2737367544323206e-13) translate(-2.2737367544323206e-13,-1.9892692565917969) translate(-2.2737367544323206e-13,-1.9892692565917969) translate(-2.2737367544323206e-13,-1.9892692565917969) translate(-2.2737367544323206e-13,-1.9892692565917969) translate(-2.2737367544323206e-13,-1.9892692565917969) translate(-2.388622999191284,0) translate(-2.388622999191284,0) translate(-2.388622999191284,0) translate(-2.388622999191284,0) translate(-2.388622999191284,0) translate(-2.388622999191284,0) translate(-2.388622999191284,0) translate(-2.388622999191284,0) translate(-2.388622999191284,0) translate(-2.388622999191284,0) translate(-2.388622999191284,0) translate(-2.388622999191284,0) translate(-2.388622999191284,0) translate(-2.388622999191284,0) translate(-2.388622999191284,0) translate(-2.388622999191284,0) translate(-2.388622999191284,0) translate(-2.388622999191284,0) translate(-2.388622999191284,0) translate(-2.388622999191284,0) translate(-2.388622999191284,0) translate(-2.388622999191284,0) translate(-2.388622999191284,0) translate(-2.388622999191284,0) translate(-2.388622999191284,0) translate(-2.388622999191284,0) translate(-2.388622999191284,0) translate(-2.388622999191284,0) translate(-2.388622999191284,0) translate(132.1006622314453,0) translate(81.21318817138672,-19.108985900878906) translate(-319.82537841796875,-219.4150848388672) translate(2181.51171875,0) translate(0,2154.202392578125) ">Layer 1</title>
    <g stroke="null" id="svg_11">
     <path stroke="null" d="m2802.429994,2657.291821c0,14.99677 -12.27009,27.26685 -27.26686,27.26685l-599.87074,0c-14.99677,0 -27.26686,-12.27008 -27.26686,-27.26685l0,-272.66852c0,-14.99677 12.27009,-27.26685 27.26686,-27.26685l599.87074,0c14.99677,0 27.26686,12.27008 27.26686,27.26685l0,272.66852z" fill="#ffffff" id="svg_14"/>
     <path stroke="null" d="m2273.77592,2436.21117l82.48223,0c10.39548,0 15.67844,4.43086 15.67844,13.12217s-5.28296,13.12217 -15.67844,13.12217l-74.47259,0l0,37.32151l67.82629,0c10.39549,0 15.67844,4.43086 15.67844,13.12217s-5.28295,13.12217 -15.67844,13.12217l-67.82629,0l0,50.10284c0,10.39549 -4.43087,15.67844 -13.12218,15.67844s-13.12217,-5.28295 -13.12217,-15.67844l0,-121.84874c0,-11.92925 6.13504,-18.06429 18.23471,-18.06429zm137.35677,-1.53376c8.6913,0 13.12217,5.28295 13.12217,15.84885l0,125.08669c0,10.39548 -4.43086,15.67844 -13.12217,15.67844s-13.12218,-5.28296 -13.12218,-15.67844l0,-125.08669c0,-10.5659 4.43087,-15.84885 13.12218,-15.84885zm57.4308,0c8.69131,0 13.12218,5.28295 13.12218,15.84885l0,113.15744l71.57548,0c10.39549,0 15.67844,4.43086 15.67844,13.12217s-5.28295,13.12218 -15.67844,13.12218l-79.58512,0c-12.09967,0 -18.23471,-6.13505 -18.23471,-18.40513l0,-121.16707c0,-10.39549 4.26045,-15.67844 13.12217,-15.67844zm138.89053,1.53376l82.65265,0c10.39548,0 15.67844,4.43086 15.67844,13.12217s-5.28296,13.12217 -15.67844,13.12217l-74.64301,0l0,37.32151l67.99671,0c10.39549,0 15.67844,4.43086 15.67844,13.12217s-5.28295,13.12217 -15.67844,13.12217l-67.99671,0l0,37.66234l75.83593,0c10.39549,0 15.67844,4.43086 15.67844,13.12217s-5.28295,13.12218 -15.67844,13.12218l-84.01599,0c-12.09966,0 -18.2347,-6.13504 -18.2347,-18.40513l0,-117.24746c0.34083,-11.92925 6.47587,-18.06429 18.40512,-18.06429z" fill="#ffffff" id="svg_12"/>
     <text stroke="null" xml:space="preserve" text-anchor="start" font-family="Helvetica, Arial, sans-serif" font-size="2" id="svg_23" y="25.378788" x="7.752525" stroke-opacity="null" stroke-width="0" fill="#ffffff">FILE</text>
    </g>
   </g>
  </g>
  <text stroke="null" font-weight="normal" xml:space="preserve" text-anchor="start" font-family="Helvetica, Arial, sans-serif" font-size="8" id="svg_24" y="27.803031" x="8.055556" stroke-opacity="null" stroke-width="0" fill="#ffffff">FILE</text>
 </g>
</svg>