<svg width="40" height="40" xmlns="http://www.w3.org/2000/svg">

 <g>
  <title>background</title>
  <rect fill="none" id="canvas_background" height="402" width="582" y="-1" x="-1"/>
 </g>
 <g>
  <title>Layer 1</title>
  <g id="file-import-alt">
   <g id="svg_10">
    <path fill="#ffffff" d="m27.5,15c-3.3333,0 -5,-1.6667 -5,-5l0,-5l-10,0c-3.33333,0 -5,1.66667 -5,5l0,20c0,3.3333 1.66667,5 5,5l15,0c3.3333,0 5,-1.6667 5,-5l0,-15l-5,0z" id="Vector"/>
    <path fill="#6743d2" d="m27.5,15l5,0l-10,-10l0,5c0,3.3333 1.6667,5 5,5z" id="Vector_2"/>
   </g>
   <path stroke="null" id="svg_7" fill="#FFFFFF" d="m516.8,569.6c-33.6,-33.6 -88,-33.6 -121.6,0l-49.6,49.6c-32,32 -32,86.4 0,120c8,8 20.8,8 28.8,0s8,-19.2 0,-27.2c-17.6,-19.2 -17.6,-48 0,-65.6l49.6,-49.6c17.6,-17.6 46.4,-17.6 64,0c17.6,19.2 17.6,48 0,65.6l-22.4,24c4.8,16 8,32 6.4,48l43.2,-43.2c33.6,-33.6 33.6,-88 1.6,-121.6zm-124.8,96c-6.4,6.4 -6.4,19.2 0,27.2c19.2,17.6 19.2,48 0,65.6l-48,48c-17.6,17.6 -46.4,17.6 -65.6,0c-17.6,-17.6 -17.6,-46.4 0,-64l24,-24c-6.4,-16 -8,-32 -6.4,-49.6l-44.8,44.8c-33.6,33.6 -33.6,88 0,121.6c33.6,33.6 88,33.6 120,0l49.6,-49.6c33.6,-33.6 33.6,-86.4 0,-120c-8,-8 -20.8,-8 -28.8,0z"/>
   <path id="svg_12" d="m17.796672,19.829177c-0.718459,0.718886 -0.998334,1.700155 -0.863943,2.63364l1.331966,-1.331966c0.001707,-0.002133 0.005973,-0.003413 0.006826,-0.00512c0.089594,-0.171935 0.19796,-0.336618 0.342164,-0.480395c0.756857,-0.75771 1.984296,-0.757284 2.742433,0c0.757284,0.75643 0.758137,1.984723 0.000853,2.74286c-0.145057,0.145057 -0.310166,0.252997 -0.482528,0.343017c-0.001707,0.000853 -0.00256,0.00256 -0.004266,0.004266l-1.332392,1.332393c0.933485,0.134818 1.916461,-0.145057 2.63492,-0.86309c1.208241,-1.208241 1.207387,-3.166939 0,-4.375179c-1.209094,-1.208241 -3.167792,-1.208241 -4.376032,-0.000427zm-0.473569,7.451671c-0.089167,0.172789 -0.197107,0.337471 -0.341738,0.482528c-0.757284,0.756857 -1.986429,0.756857 -2.743713,0c-0.757284,-0.756857 -0.757284,-1.98515 0,-2.743287c0.14463,-0.144204 0.309313,-0.252143 0.481248,-0.341311c0.001707,-0.00256 0.002133,-0.00512 0.004693,-0.006826l1.331539,-1.332393c-0.933059,-0.134818 -1.915181,0.14591 -2.633214,0.863517c-1.207814,1.207814 -1.207387,3.166939 0,4.375179c1.208667,1.207814 3.167365,1.207814 4.376032,0c0.718459,-0.718459 0.999188,-1.700582 0.86309,-2.634494l-1.333246,1.332393c-0.00128,0.002986 -0.002986,0.00384 -0.004693,0.004693zm-2.182683,-1.357564l0.937325,0.937325c0.229105,0.229105 0.604547,0.229105 0.833225,0l3.541954,-3.541954c0.229958,-0.228678 0.229958,-0.604547 0.000853,-0.832799l-0.938178,-0.937325c-0.228678,-0.229958 -0.60412,-0.229958 -0.832799,-0.000853l-3.541954,3.542381c-0.229532,0.229105 -0.229532,0.604547 -0.000427,0.833225z" stroke-opacity="null" stroke-width="null" stroke="null" fill="#6743d2"/>
  </g>
 </g>
</svg>