<svg width="40" height="40" xmlns="http://www.w3.org/2000/svg">

 <g>
  <title>background</title>
  <rect fill="none" id="canvas_background" height="136.736836" width="136.736836" y="-1" x="-1"/>
 </g>
 <g>
  <title>Layer 1</title>
  <g id="file-import-alt">
   <path fill="#ffffff" d="m25,15c-3.3333,0 -5,-1.6667 -5,-5l0,-5l-10,0c-3.33333,0 -5,1.66667 -5,5l0,20c0,3.3333 1.66667,5 5,5l15,0c3.3333,0 5,-1.6667 5,-5l0,-15l-5,0z" id="Vector"/>
   <path fill="#673cd5" d="m25,15l5,0l-10,-10l0,5c0,3.3333 1.6667,5 5,5z" id="Vector_2"/>
   <path fill="#673cd5" d="m36.6669,25.4166l-11.9816,0l1.1999,-1.2c0.4883,-0.4883 0.4883,-1.28 0,-1.7683c-0.4883,-0.4884 -1.2801,-0.4884 -1.7684,0l-3.3333,3.3333c-0.115,0.115 -0.2065,0.2534 -0.2698,0.4067c-0.1267,0.305 -0.1267,0.65 0,0.955c0.0633,0.1533 0.1548,0.2917 0.2698,0.4067l3.3333,3.3333c0.2433,0.2433 0.5634,0.3667 0.8834,0.3667c0.32,0 0.64,-0.1217 0.8834,-0.3667c0.4883,-0.4883 0.4883,-1.28 0,-1.7684l-1.2,-1.2l11.9833,0c0.69,0 1.25,-0.56 1.25,-1.25c0,-0.69 -0.56,-1.2483 -1.25,-1.2483z" id="Vector_3"/>
  </g>
 </g>
</svg>