<svg width="40" height="40" viewBox="0 0 40 40" fill="none" xmlns="http://www.w3.org/2000/svg">
<g id="file-import-alt">
<path id="Vector" opacity="0.4" d="M25 15C21.6667 15 20 13.3333 20 10V5H10C6.66667 5 5 6.66667 5 10V30C5 33.3333 6.66667 35 10 35H25C28.3333 35 30 33.3333 30 30V15H25Z" fill="white"/>
<path id="Vector_2" d="M25 15H30L20 5V10C20 13.3333 21.6667 15 25 15Z" fill="white"/>
<path id="Vector_3" d="M36.6669 25.4166H24.6853L25.8852 24.2166C26.3735 23.7283 26.3735 22.9366 25.8852 22.4483C25.3969 21.9599 24.6051 21.9599 24.1168 22.4483L20.7835 25.7816C20.6685 25.8966 20.577 26.035 20.5137 26.1883C20.387 26.4933 20.387 26.8383 20.5137 27.1433C20.577 27.2966 20.6685 27.435 20.7835 27.55L24.1168 30.8833C24.3601 31.1266 24.6802 31.25 25.0002 31.25C25.3202 31.25 25.6402 31.1283 25.8836 30.8833C26.3719 30.395 26.3719 29.6033 25.8836 29.1149L24.6836 27.9149H36.6669C37.3569 27.9149 37.9169 27.3549 37.9169 26.6649C37.9169 25.9749 37.3569 25.4166 36.6669 25.4166Z" fill="white"/>
</g>
</svg>
