<svg width="21" height="20" viewBox="0 0 21 20" fill="none" xmlns="http://www.w3.org/2000/svg">
<path d="M3.85004 11.6666C2.93004 11.6666 2.1792 10.92 2.1792 9.99998C2.1792 9.07998 2.92086 8.33331 3.8417 8.33331H3.85004C4.77004 8.33331 5.5167 9.07998 5.5167 9.99998C5.5167 10.92 4.77087 11.6666 3.85004 11.6666ZM12.1834 9.99998C12.1834 9.07998 11.4367 8.33331 10.5167 8.33331H10.5084C9.58836 8.33331 8.84587 9.07998 8.84587 9.99998C8.84587 10.92 9.59587 11.6666 10.5167 11.6666C11.4375 11.6666 12.1834 10.92 12.1834 9.99998ZM18.85 9.99998C18.85 9.07998 18.1034 8.33331 17.1834 8.33331H17.175C16.255 8.33331 15.5125 9.07998 15.5125 9.99998C15.5125 10.92 16.2625 11.6666 17.1834 11.6666C18.1042 11.6666 18.85 10.92 18.85 9.99998Z" fill="#C1C7D0"/>
</svg>
