<?xml version="1.0" standalone="no"?><!DOCTYPE svg PUBLIC "-//W3C//DTD SVG 1.1//EN" "http://www.w3.org/Graphics/SVG/1.1/DTD/svg11.dtd"><svg class="icon" width="32px" height="32.00px" viewBox="0 0 1024 1024" version="1.1" xmlns="http://www.w3.org/2000/svg"><path d="M512 0C229.2736 0.1024 0.1024 229.2736 0 512c0.1024 282.7264 229.2736 511.8976 512 512a512.2048 512.2048 0 0 0 362.1888-874.1888A511.5904 511.5904 0 0 0 512 0z" fill="#2BA245" /><path d="M513.4848 256c72.7552 0 132.096 69.4784 132.096 155.0848 0 43.52-15.6672 85.1968-43.008 114.432a163.84 163.84 0 0 1-9.5232 9.1648c-8.3968 8.9088-12.2368 17.2544-12.2368 26.0096 0 20.48 21.9648 40.8576 57.9584 54.1696l6.912 2.4576c6.4 2.048 13.4144 3.7888 20.2752 5.5808l3.8912 0.8704c84.5312 27.9552 134.7072 75.9808 134.7072 128.512a15.9744 15.9744 0 0 1-13.7216 15.4112l-3.0208 0.3072H236.1856a17.3568 17.3568 0 0 1-11.8784-4.608 15.2064 15.2064 0 0 1-4.864-11.1104c0-54.8864 53.6576-103.8848 143.5136-130.9184 4.6592-1.4848 9.472-2.8672 14.2336-4.0448l4.7616-1.1776c40.2432-12.6976 65.2288-33.536 65.2288-54.4768a37.888 37.888 0 0 0-12.1344-25.6l-2.56-2.4064c-32.6144-29.3888-51.3536-74.0352-51.3536-122.6752C381.1328 325.4784 440.6272 256 513.3824 256h0.1024z m-3.328 305.3568l-46.1312 118.6304 46.08 55.9104 49.8688-55.9104-49.8688-118.6304h0.0512z" fill="#FFFFFF" /></svg>