<svg width="80" height="80" xmlns="http://www.w3.org/2000/svg">
 <title>Icon-Architecture/64/Arch_Amazon-Simple-Storage-Service_64</title>
 <defs>
  <linearGradient id="linearGradient-1" y2="0%" x2="100%" y1="100%" x1="0%">
   <stop offset="0%" stop-color="#1B660F"/>
   <stop offset="100%" stop-color="#6CAE3E"/>
  </linearGradient>
 </defs>
 <g>
  <title>background</title>
  <rect fill="none" id="canvas_background" height="402" width="582" y="-1" x="-1"/>
 </g>
 <g>
  <title>Layer 1</title>
  <g fill-rule="evenodd" fill="none" id="Icon-Architecture/64/Arch_Amazon-Simple-Storage-Service_64">
   <g fill="url(#linearGradient-1)" id="Rectangle">
    <rect fill="#6a6b6e" id="svg_1" height="80" width="80" y="0" x="0"/>
   </g>
   <g fill="#FFFFFF" id="Icon-Service/64/Amazon-Simple-Storage-Service_64">
    <path id="Amazon-Simple-Storage-Service-Icon_64_Squid" d="m60.8359,42.8926l0.384,-2.704c3.541,2.121 3.587,2.997 3.586013,3.021c-0.006013,0.005 -0.610013,0.509 -3.970013,-0.317l0,0zm-1.943,-0.54c-6.12,-1.852 -14.643,-5.762 -18.092,-7.392c0,-0.014 0.004,-0.027 0.004,-0.041c0,-1.325 -1.078,-2.403 -2.404,-2.403c-1.324,0 -2.402,1.078 -2.402,2.403c0,1.325 1.078,2.403 2.402,2.403c0.582,0 1.11,-0.217 1.527,-0.562c4.058,1.921 12.515,5.774 18.68,7.594l-2.438,17.206c-0.007,0.047 -0.01,0.094 -0.01,0.141c0,1.515 -6.707,4.298 -17.666,4.298c-11.075,0 -17.853,-2.783 -17.853,-4.298c0,-0.046 -0.003,-0.091 -0.009,-0.136l-5.094,-37.207c4.409,3.035 13.892,4.641 22.962,4.641c9.056,0 18.523,-1.6 22.941,-4.626l-2.548,17.979zm-43.893,-21.875c0.072,-1.316 7.634,-6.478 23.5,-6.478c15.864,0 23.427,5.161 23.5,6.478l0,0.449c-0.87,2.951 -10.67,6.073 -23.5,6.073c-12.852,0 -22.657,-3.132 -23.5,-6.087l0,-0.435zm49,0.022c0,-3.465 -9.934,-8.5 -25.5,-8.5c-15.566,0 -25.5,5.035 -25.5,8.5l0.094,0.754l5.548,40.524c0.133,4.532 12.219,6.222 19.852,6.222c9.472,0 19.535,-2.178 19.665,-6.219l2.396,-16.897c1.333,0.319 2.43,0.482 3.311,0.482c1.183,0 1.983,-0.289 2.468,-0.867c0.398,-0.474 0.55,-1.048 0.436,-1.659c-0.259,-1.384 -1.902,-2.876 -5.248,-4.785l2.376,-16.762l0.102,-0.793z"/>
   </g>
  </g>
 </g>
</svg>