<svg width="21" height="20" viewBox="0 0 21 20" fill="none" xmlns="http://www.w3.org/2000/svg">
<path d="M10.5002 6.87502C8.77683 6.87502 7.37516 8.27668 7.37516 10C7.37516 11.7233 8.77683 13.125 10.5002 13.125C12.2235 13.125 13.6252 11.7233 13.6252 10C13.6252 8.27668 12.2235 6.87502 10.5002 6.87502ZM10.5002 11.875C9.46599 11.875 8.62516 11.0342 8.62516 10C8.62516 8.96585 9.46599 8.12502 10.5002 8.12502C11.5343 8.12502 12.3752 8.96585 12.3752 10C12.3752 11.0342 11.5343 11.875 10.5002 11.875ZM18.1735 11.6275C17.5952 11.2925 17.2352 10.6692 17.2343 10C17.2335 9.33252 17.591 8.71003 18.1768 8.37086C18.606 8.12169 18.7527 7.56917 18.5043 7.13917L17.111 4.73418C16.8627 4.30502 16.3102 4.15752 15.8802 4.40502C15.2977 4.74086 14.5735 4.74086 13.9893 4.40169C13.4135 4.06753 13.0552 3.44669 13.0552 2.78085C13.0552 2.28169 12.6485 1.87585 12.1493 1.87585H8.85348C8.35348 1.87585 7.94767 2.28169 7.94767 2.78085C7.94767 3.44669 7.58932 4.06751 7.01182 4.40335C6.42932 4.74085 5.706 4.74167 5.1235 4.40584C4.69266 4.1575 4.14101 4.30585 3.89267 4.73502L2.49766 7.14253C2.24933 7.57169 2.39682 8.12334 2.83015 8.375C3.40765 8.70917 3.76766 9.33168 3.76933 9.99918C3.771 10.6675 3.41266 11.2917 2.82766 11.6308C2.61933 11.7517 2.46933 11.9458 2.40766 12.1792C2.34599 12.4117 2.37767 12.6542 2.4985 12.8634L3.89099 15.2667C4.13933 15.6967 4.69183 15.8459 5.1235 15.5967C5.706 15.2609 6.4285 15.2617 7.00267 15.5942L7.00432 15.595C7.00682 15.5967 7.00933 15.5983 7.01266 15.6C7.5885 15.9342 7.94599 16.555 7.94515 17.2217C7.94515 17.7208 8.35098 18.1267 8.85015 18.1267H12.1493C12.6485 18.1267 13.0543 17.7208 13.0543 17.2225C13.0543 16.5558 13.4127 15.935 13.991 15.5992C14.5727 15.2617 15.296 15.26 15.8793 15.5967C16.3093 15.845 16.861 15.6975 17.1102 15.2683L18.5051 12.8609C18.7527 12.43 18.6052 11.8775 18.1735 11.6275ZM16.1927 14.3558C15.2843 13.96 14.2302 14.0142 13.3618 14.5167C12.501 15.0159 11.9327 15.8983 11.8227 16.875H9.17516C9.06683 15.8983 8.49682 15.0142 7.63598 14.5159C6.76932 14.0134 5.7135 13.96 4.80767 14.3558L3.74433 12.52C4.54016 11.9342 5.02099 10.9942 5.01765 9.99419C5.01515 9.00086 4.53516 8.06751 3.74349 7.48168L4.80767 5.645C5.71433 6.04 6.77017 5.98667 7.6385 5.48334C8.4985 4.985 9.06682 4.10169 9.17682 3.12585H11.8227C11.9318 4.10252 12.501 4.98502 13.3635 5.48502C14.2293 5.98752 15.2852 6.04084 16.1927 5.64584L17.2568 7.48168C16.4627 8.06668 15.9827 9.00501 15.9843 10.0033C15.9852 10.9983 16.4652 11.9333 17.2577 12.5208L16.1927 14.3558Z" fill="#C1C7D0"/>
</svg>
