<svg width="101" height="103" viewBox="0 0 101 103" fill="none" xmlns="http://www.w3.org/2000/svg">
<path d="M49.7508 97.1522C76.2117 97.1522 97.6624 75.7397 97.6624 49.3261C97.6624 22.9125 76.2117 1.5 49.7508 1.5C23.29 1.5 1.83926 22.9125 1.83926 49.3261C1.83926 75.7397 23.29 97.1522 49.7508 97.1522Z" fill="#1F2229" stroke="#2E333D" stroke-width="2" stroke-miterlimit="10" stroke-dasharray="4 4"/>
<path d="M26.8563 69.1957C26.3129 69.1957 25.7948 69.0875 25.3213 68.8921L24.9398 69.8164C23.7135 69.3102 22.7272 68.3349 22.2131 67.1208L23.1339 66.7308C22.9348 66.2606 22.8247 65.7461 22.8247 65.2067V62.5599H21.8247V57.2664H22.8247V51.9729H21.8247V46.6794H22.8247V41.3858H21.8247V36.0923H22.8247V33.4456C22.8247 32.9061 22.9348 32.3916 23.1339 31.9214L22.2131 31.5315C22.7272 30.3173 23.7135 29.3421 24.9398 28.8358L25.3213 29.7602C25.7948 29.5647 26.3129 29.4565 26.8563 29.4565H29.1772V28.4565H33.819V29.4565H38.4608V28.4565H43.1026V29.4565H47.7444V28.4565H52.3862V29.4565H57.028V28.4565H61.6698V29.4565H66.3116V28.4565H70.9534V29.4565H73.2743C73.8177 29.4565 74.3358 29.5647 74.8092 29.7602L75.1908 28.8358C76.4171 29.3421 77.4034 30.3173 77.9175 31.5315L76.9967 31.9214C77.1958 32.3916 77.3058 32.9061 77.3058 33.4456V36.0982H78.3058V41.4034H77.3058V46.7086H78.3058V52.0139H77.3058V57.3191H78.3058V62.6243H77.3058V65.2769C77.3058 65.8221 77.1978 66.3346 77.0034 66.7976L77.9254 67.1849C77.4176 68.3939 76.4357 69.351 75.1886 69.8396L74.8238 68.9085C74.354 69.0926 73.8324 69.1957 73.2743 69.1957H70.9534V70.1957H66.3116V69.1957H61.6698V70.1957H57.028V69.1957H52.3862V70.1957H47.7444V69.1957H43.1026V70.1957H38.4608V69.1957H33.819V70.1957H29.1772V69.1957H26.8563Z" fill="#2E333D" stroke="#3E4450" stroke-width="2" stroke-miterlimit="10" stroke-dasharray="5.01 5.01"/>
<path fill-rule="evenodd" clip-rule="evenodd" d="M45.2862 53.6092C45.2862 53.0932 45.7243 52.6749 46.2647 52.6749H54.735C55.2754 52.6749 55.7135 53.0932 55.7135 53.6092C55.7135 54.1252 55.2754 54.5435 54.735 54.5435H46.2647C45.7243 54.5435 45.2862 54.1252 45.2862 53.6092Z" fill="#949BAB"/>
<path fill-rule="evenodd" clip-rule="evenodd" d="M50.464 42.6408C51.0044 42.6408 51.4425 43.0591 51.4425 43.5751V50.1515C51.4425 50.6675 51.0044 51.0858 50.464 51.0858C49.9236 51.0858 49.4855 50.6675 49.4855 50.1515V43.5751C49.4855 43.0591 49.9236 42.6408 50.464 42.6408Z" fill="#949BAB"/>
<path fill-rule="evenodd" clip-rule="evenodd" d="M49.7733 42.6425C50.1529 42.2808 50.7666 42.2784 51.1494 42.6369L55.4202 46.637C55.806 46.9984 55.812 47.5899 55.4336 47.9583C55.0552 48.3267 54.4357 48.3324 54.0499 47.971L50.4701 44.6181L46.9557 47.9655C46.5731 48.3299 45.9536 48.3292 45.5719 47.9639C45.1903 47.5985 45.1911 47.007 45.5737 46.6425L49.7733 42.6425Z" fill="#949BAB"/>
<path d="M93.5532 97.783H49.8379C47.235 97.783 45.0993 95.6511 45.0993 93.0529V62.8732C45.0993 60.275 47.235 58.1431 49.8379 58.1431H93.5532C96.1561 58.1431 98.2918 60.275 98.2918 62.8732V93.0529C98.2918 95.6511 96.1561 97.783 93.5532 97.783Z" fill="#2E333D" stroke="#3E4450" stroke-width="2" stroke-miterlimit="10"/>
<path d="M89.4936 68.0201H53.8976C53.0697 68.0201 52.3602 67.3105 52.3602 66.4827C52.3602 65.6549 53.0697 64.9453 53.8976 64.9453H89.4936C90.3214 64.9453 91.031 65.6549 91.031 66.4827C91.031 67.3105 90.3214 68.0201 89.4936 68.0201Z" fill="#3E4450"/>
<path d="M67.6156 76.5347H53.8976C53.0697 76.5347 52.3602 75.8251 52.3602 74.9973C52.3602 74.1695 53.0697 73.46 53.8976 73.46H67.4974C68.3252 73.46 69.0347 74.1695 69.0347 74.9973C69.0347 75.8251 68.3252 76.5347 67.6156 76.5347Z" fill="#3E4450"/>
<path d="M97.7455 87.3385C98.5317 87.3385 99.1606 87.9679 99.1606 88.7547V97.881C99.1606 99.9265 97.5882 101.5 95.5442 101.5H89.5692C88.9402 101.5 88.3113 101.343 87.9968 100.871C86.5817 99.6118 83.5942 97.0942 82.9652 96.1501C82.808 95.8354 82.6507 95.6781 82.6507 95.3634V93.3178C82.6507 92.059 83.5942 91.1149 84.852 91.1149H85.6382V95.0487H86.1099V86.8665C86.1099 86.0797 86.7389 85.4503 87.5251 85.4503C88.3113 85.4503 88.9402 86.0797 88.9402 86.8665V88.44H89.4119V86.3944C89.4119 85.6077 90.0409 84.9783 90.8271 84.9783C91.6132 84.9783 92.2422 85.6077 92.2422 86.3944V88.44H92.8711V87.3385C92.8711 86.5518 93.5001 85.9224 94.2863 85.9224C95.0724 85.9224 95.7014 86.5518 95.7014 87.3385V88.44H96.3303C96.4876 87.8106 96.9593 87.3385 97.7455 87.3385Z" fill="#6D7381" stroke="#949BAB" stroke-width="2" stroke-miterlimit="10" stroke-linejoin="round"/>
</svg>
