<svg width="22" height="23" viewBox="0 0 22 23" fill="none" xmlns="http://www.w3.org/2000/svg">
<path d="M11.0002 2.33333C5.93741 2.33333 1.8335 6.43724 1.8335 11.5C1.8335 16.5627 5.93741 20.6667 11.0002 20.6667C16.0629 20.6667 20.1668 16.5627 20.1668 11.5C20.1668 6.43724 16.0629 2.33333 11.0002 2.33333ZM10.3127 7.37499C10.3127 6.99549 10.6207 6.68749 11.0002 6.68749C11.3797 6.68749 11.6877 6.99549 11.6877 7.37499V11.5651C11.6877 11.9446 11.3797 12.2526 11.0002 12.2526C10.6207 12.2526 10.3127 11.9446 10.3127 11.5651V7.37499ZM11.0185 15.625C10.5125 15.625 10.0971 15.2143 10.0971 14.7083C10.0971 14.2023 10.5033 13.7917 11.0093 13.7917H11.0185C11.5254 13.7917 11.9352 14.2023 11.9352 14.7083C11.9352 15.2143 11.5245 15.625 11.0185 15.625Z" fill="#BF2600"/>
</svg>
