<svg width="1225" height="1024" xmlns="http://www.w3.org/2000/svg" class="icon">

 <g>
  <title>background</title>
  <rect fill="none" id="canvas_background" height="402" width="582" y="-1" x="-1"/>
 </g>
 <g>
  <title>Layer 1</title>
  <g stroke="null" id="svg_6">
   <path stroke="null" id="svg_1" fill="#FB6700" d="m778.967576,777.877023l0.952575,1.04677a12.653234,12.653234 0 0 0 1.90195,1.571217l3.995474,3.900217a177.324038,177.324038 0 0 1 48.710993,90.715417a49.471985,49.471985 0 0 0 1.903019,11.654635c7.552125,27.600146 34.22003,45.473296 62.618637,41.969093c28.399676,-3.505272 49.922587,-27.325078 50.53909,-55.932393c0.616503,-28.608385 -19.860724,-53.333672 -48.082719,-58.056962l-3.472097,-0.476291a177.006154,177.006154 0 0 1 -93.09365,-49.090959l-5.565621,-5.613784c-5.212423,-5.016554 -13.416373,-5.153557 -18.794688,-0.313607c-5.377254,4.839959 -6.101855,13.012865 -1.660057,18.722982l0,-0.095257l0.047094,0l0,-0.001078z"/>
   <path stroke="null" id="svg_2" fill="#23A4FF" d="m961.159393,822.069166l1.188043,-0.951514a84.815847,84.815847 0 0 1 5.423279,-5.897423a177.101411,177.101411 0 0 1 90.762502,-48.6639a46.428017,46.428017 0 0 0 5.613792,-0.618642a56.987727,56.987727 0 0 0 31.633088,-16.1264c17.790734,-17.930946 21.810828,-45.366267 9.914309,-67.648032c-11.897597,-22.282842 -36.931143,-34.205051 -61.729213,-29.398275c-24.797001,4.807845 -43.56386,25.219774 -46.272818,50.333589a176.815641,176.815641 0 0 1 -49.092028,92.998385l-5.612723,5.612723c-5.436119,5.117166 -5.793603,13.637923 -0.807016,19.192841c4.987656,5.554927 13.496642,6.115765 19.169299,1.262973l-0.14342,-0.096326l-0.047094,0z"/>
   <path stroke="null" id="svg_3" fill="#4DDC00" d="m1005.540972,639.973674l-0.951505,-1.093864a16.934485,16.934485 0 0 0 -1.997206,-1.570147l-3.710773,-3.567353a176.815641,176.815641 0 0 1 -48.615737,-90.810665c0,-1.807762 -0.332864,-3.66261 -0.618642,-5.565629c-4.572377,-28.593398 -29.659433,-49.3489 -58.603898,-48.485158c-28.943388,0.864812 -52.748214,23.081287 -55.605946,51.896242c-2.857732,28.816025 16.118906,55.274152 44.330207,61.807343c1.093856,0 2.282976,0.475222 3.425003,0.665735l3.473158,0.475214a177.196667,177.196667 0 0 1 93.140743,49.092028c1.903019,1.903019 3.709704,3.806038 5.612723,5.612723c5.212423,5.016554 13.416364,5.153557 18.794688,0.313598c5.377246,-4.838882 6.101855,-13.011787 1.660057,-18.722974l-0.331802,-0.047094l-0.001069,0z"/>
   <path stroke="null" id="svg_4" fill="#FFE21B" d="m823.207874,595.639189c-1.006093,0.865881 -1.91586,1.838791 -2.712174,2.90054l-3.80496,4.044714a177.148504,177.148504 0 0 1 -90.810665,48.567574c-1.807762,0 -3.756797,0.381035 -5.612723,0.618642a57.386949,57.386949 0 0 0 -31.585995,16.1264c-17.462148,17.259855 -22.07841,43.684807 -11.500505,65.842417c10.577897,22.15761 34.02737,35.185454 58.428356,32.460439c24.400986,-2.725015 44.398705,-20.604589 49.828408,-44.549619l0.665735,-3.472097c0,-1.142019 0.332864,-2.379302 0.475214,-3.473158a177.339017,177.339017 0 0 1 49.424892,-93.045487l5.613792,-5.613792c5.016554,-5.212423 5.153557,-13.415295 0.313598,-18.793619c-4.839951,-5.377246 -13.012856,-6.102924 -18.722974,-1.661126l0,0.048163l0,0.000008z"/>
   <path stroke="null" id="svg_5" fill="#2D9EFC" d="m909.022328,314.217623a351.823519,351.823519 0 0 0 -64.028238,-90.856698c-66.834599,-69.071551 -160.403463,-113.549464 -263.534506,-125.298286a482.038817,482.038817 0 0 0 -54.371879,-3.234482c-17.45787,0 -34.915733,0.951505 -52.231253,2.853455c-103.559164,11.274669 -197.603249,55.560991 -264.962303,124.727807a353.012631,353.012631 0 0 0 -64.361102,90.571989a316.146786,316.146786 0 0 0 -33.012722,140.329752a322.2358,322.2358 0 0 0 55.084708,179.242036c24.071331,35.201511 52.802801,67.072206 85.245045,94.662727l-16.554528,68.500003l-4.756466,19.313788a30.254524,30.254524 0 0 0 -2.379302,9.893974a24.354962,24.354962 0 0 0 -0.331802,2.996875a31.634158,31.634158 0 0 0 47.616068,27.54235l0.476291,0c0.665735,-0.475222 1.426727,-0.808086 1.997198,-1.236214l118.448288,-59.557542a463.129598,463.129598 0 0 0 77.300113,14.889124a478.881396,478.881396 0 0 0 106.793645,-0.284709a465.990547,465.990547 0 0 0 104.462506,-24.451288c-25.580466,-8.380545 -41.924146,-33.381977 -39.340404,-60.175115c-24.069192,7.61099 -48.853352,12.843755 -73.969306,15.698271a393.161129,393.161129 0 0 1 -89.43104,0.237615l-9.038787,-1.18912a393.779771,393.779771 0 0 1 -58.604968,-12.32037a40.101404,40.101404 0 0 0 -31.585995,3.187396l-2.473489,1.331471l-75.921549,44.906033a6.897091,6.897091 0 0 1 -3.328677,1.188043a4.946987,4.946987 0 0 1 -4.805698,-4.994081l2.806353,-11.178343l3.235559,-12.368533l11.226506,-42.717244a30.443968,30.443968 0 0 0 -10.988899,-33.964227a299.545172,299.545172 0 0 1 -30.396874,-25.545152a295.026305,295.026305 0 0 1 -43.145373,-50.899782a254.924909,254.924909 0 0 1 -43.765084,-141.137838a248.539423,248.539423 0 0 1 26.163794,-110.69494a283.751636,283.751636 0 0 1 51.613681,-72.637835c55.322323,-56.799344 133.193985,-93.235992 219.056593,-102.60872a405.434406,405.434406 0 0 1 89.43104,0.237607c85.528676,9.704522 162.87803,46.380924 217.867481,103.131035a283.989243,283.989243 0 0 1 51.375004,72.971776a248.720304,248.720304 0 0 1 25.545144,109.743426c0,3.900217 0,7.848605 -0.381027,11.749891c22.660652,-13.872321 51.871622,-10.432339 70.688792,8.324888c0.951505,0.950444 1.807754,2.0443 2.711105,3.043976a315.670503,315.670503 0 0 0 -31.443644,-163.9248l0,0.000008z"/>
  </g>
 </g>
</svg>